<svg width="501" height="516" viewBox="0 0 501 516" fill="none" xmlns="http://www.w3.org/2000/svg">
<path d="M164.431 182.571L101.624 330.424L249.184 293.731L164.431 182.571ZM100.918 331.066L164.284 181.618L164.539 181.959L249.956 294.006L249.625 294.089L100.918 331.066Z" fill="#3B6875"/>
<path d="M164.782 182.286L249.515 293.419L307.522 174.602L164.782 182.286ZM249.623 294.321L249.388 294.005L163.93 181.902L164.337 181.868L308.237 174.086L308.087 174.433L249.623 294.321Z" fill="#3B6875"/>
<path d="M164.948 181.818L307.478 174.15L252.765 141.853L164.948 181.818ZM308.277 174.538L307.897 174.57L163.762 182.372L164.194 181.937L252.837 141.134L252.991 141.369L308.277 174.538Z" fill="#3B6875"/>
<path d="M249.931 293.594L403.995 301.293L307.949 174.751L249.931 293.594ZM404.934 301.632L404.493 301.687L249.203 294.142L249.358 293.778L307.807 173.935L308.042 174.187L404.934 301.632Z" fill="#3B6875"/>
<path d="M249.975 294.046L318.77 435.628L404.108 301.766L249.975 294.046ZM318.871 436.549L318.636 436.22L249.16 293.692L404.833 301.219L404.679 301.582L318.871 436.549Z" fill="#3B6875"/>
<path d="M101.706 330.868L206.033 437.963L249.266 294.348L101.706 330.868ZM206.246 438.833L205.976 438.556L100.828 330.62L101.213 330.523L249.932 293.715L249.816 294.098L206.246 438.833Z" fill="#3B6875"/>
<path d="M101.566 331.373L136.684 444.329L205.706 438.275L101.566 331.373ZM136.289 444.9L136.261 444.639L100.973 330.115L101.432 330.586L206.579 438.521L206.199 438.618L136.289 444.9Z" fill="#3B6875"/>
<path d="M137.253 444.653L254.263 511.956L206.041 438.658L137.253 444.653ZM255.395 512.852L135.719 444.577L136.428 444.395L206.242 438.139L206.331 438.274L255.395 512.852Z" fill="#3B6875"/>
<path d="M206.549 438.605L254.873 512.063L318.173 436.345L206.549 438.605ZM254.779 512.744L205.73 438.19L206.129 438.172L319.467 435.83L318.968 436.261L254.779 512.744Z" fill="#3B6875"/>
<path d="M318.792 436.411L255.754 511.903L363.29 447.015L318.792 436.411ZM253.902 512.9L254.68 512.231L318.85 435.762L318.998 435.945L364.079 447.263L363.747 447.357L253.902 512.9Z" fill="#3B6875"/>
<path d="M319.225 436.416L363.668 446.764L450.194 381.1L319.225 436.416ZM363.697 447.516L363.506 447.283L318.516 436.265L318.767 436.138L451.593 379.889L451.08 380.625L363.697 447.516Z" fill="#3B6875"/>
<path d="M32.453 344.56L136.166 443.773L101.07 331.014L32.453 344.56ZM136.803 445.454L31.6758 344.251L101.468 330.472L101.495 330.719L136.803 445.454Z" fill="#3B6875"/>
<path d="M32.3334 344.122L100.933 330.58L49.2533 225.686L32.3334 344.122ZM101.602 330.91L31.793 344.691L31.8385 344.374L49.0118 224.169L101.602 330.91Z" fill="#3B6875"/>
<path d="M3.68586 245.691L32.501 339.743L48.7523 225.982L3.68586 245.691ZM32.2874 344.439L31.8361 344.397L3.23828 245.553L3.26892 245.504L49.5119 223.872L32.2874 344.439Z" fill="#3B6875"/>
<path d="M49.4384 225.03L101.235 330.16L163.956 182.549L49.4384 225.03ZM101.306 331.328L101.067 330.845L48.832 224.826L49.0335 224.726L164.757 181.638L164.571 182.168L101.306 331.328Z" fill="#3B6875"/>
<path d="M206.452 438.156L318.394 435.882L249.721 294.533L206.452 438.156ZM319.25 436.294L318.833 436.314L205.832 438.642L205.925 438.333L249.552 293.519L249.82 293.894L319.25 436.294Z" fill="#3B6875"/>
<path d="M404.541 302.649L319.268 435.609L450.614 380.379L404.541 302.649ZM318.367 436.564L318.61 435.998L404.596 301.359L404.785 301.934L451.167 380.608L450.993 380.697L318.367 436.564Z" fill="#3B6875"/>
<path d="M404.758 301.637L451.592 379.889L497.341 245.691L404.758 301.637ZM451.705 381.701L404.168 301.292L497.629 245.403L497.851 245.446L451.705 381.701Z" fill="#3B6875"/>
<path d="M308.347 174.51L404.102 301.166L399.711 190.158L308.347 174.51ZM405.048 302.843L404.409 302.157L307.414 174.175L400.04 189.657L400.094 189.846L405.048 302.843Z" fill="#3B6875"/>
<path d="M404.625 301.2L496.926 245.542L400.385 190.889L404.625 301.2ZM497.759 245.839L404.303 301.726L399.359 188.929L497.759 245.839Z" fill="#3B6875"/>
<path d="M400.512 190.332L496.383 244.172L451.405 124.085L400.512 190.332ZM498.296 247.209L497.165 245.834L399.227 189.485L451.73 123.706L451.773 123.8L498.296 247.209Z" fill="#3B6875"/>
<path d="M143.978 78.9228L164.519 181.769L252.269 141.827L143.978 78.9228ZM164.186 182.419L164.13 182.138L143.336 78.0248L253.257 141.876L164.186 182.419Z" fill="#3B6875"/>
<path d="M54.682 135.192L49.6797 224.696L163.743 182.079L54.682 135.192ZM49.1875 225.364L54.265 134.518L54.5631 134.647L164.962 182.108L164.432 182.305L49.1875 225.364Z" fill="#3B6875"/>
<path d="M54.9626 134.817L164.049 181.715L143.504 78.8418L54.9626 134.817ZM164.664 182.473L53.9922 134.894L54.3562 134.664L143.82 78.1054L164.664 182.473Z" fill="#3B6875"/>
<path d="M54.1841 136.041L4.14699 245.235L49.219 224.88L54.1841 136.041ZM3.23047 246.146L3.48211 245.596L54.771 133.671L49.6563 225.181L49.531 225.236L3.23047 246.146Z" fill="#3B6875"/>
<path d="M253.205 141.848L307.786 174.026L357.291 77.2789L253.205 141.848ZM307.97 174.662L252.328 141.857L358.437 76.0336L307.97 174.662Z" fill="#3B6875"/>
<path d="M357.813 77.2541L308.346 173.93L398.952 189.346L357.813 77.2541ZM307.414 174.756L357.919 76.0554L399.513 189.624L399.311 189.698L307.414 174.756Z" fill="#3B6875"/>
<path d="M358.241 77.099L399.381 189.196L450.825 124.04L358.241 77.099ZM399.086 189.772L399.017 189.551L357.492 76.2094L357.969 76.4518L452 124.128L399.086 189.772Z" fill="#3B6875"/>
<path d="M454.249 381.256C454.249 383.045 452.8 384.494 451.011 384.494C449.222 384.494 447.773 383.045 447.773 381.256C447.773 379.468 449.222 378.018 451.011 378.018C452.8 378.018 454.249 379.468 454.249 381.256Z" fill="#3B6875"/>
<path d="M403.91 189.908C403.91 192.338 401.941 194.307 399.512 194.307C397.082 194.307 395.113 192.338 395.113 189.908C395.113 187.479 397.082 185.51 399.512 185.51C401.941 185.51 403.91 187.479 403.91 189.908Z" fill="#3B6875"/>
<path d="M311.811 174.662C311.811 177.09 309.843 179.06 307.413 179.06C304.983 179.06 303.016 177.09 303.016 174.662C303.016 172.232 304.983 170.263 307.413 170.263C309.843 170.263 311.811 172.232 311.811 174.662Z" fill="#3B6875"/>
<path d="M409.233 301.359C409.233 303.788 407.264 305.757 404.835 305.757C402.405 305.757 400.438 303.788 400.438 301.359C400.438 298.93 402.405 296.961 404.835 296.961C407.264 296.961 409.233 298.93 409.233 301.359Z" fill="#3B6875"/>
<path d="M253.605 294.321C253.605 296.75 251.637 298.719 249.206 298.719C246.776 298.719 244.809 296.75 244.809 294.321C244.809 291.892 246.776 289.921 249.206 289.921C251.637 289.921 253.605 291.892 253.605 294.321Z" fill="#3B6875"/>
<path d="M169.364 182.473C169.364 184.902 167.394 186.871 164.965 186.871C162.534 186.871 160.566 184.902 160.566 182.473C160.566 180.043 162.534 178.075 164.965 178.075C167.394 178.075 169.364 180.043 169.364 182.473Z" fill="#3B6875"/>
<path d="M53.2272 225.365C53.2272 227.794 51.2576 229.763 48.8284 229.763C46.3983 229.763 44.4297 227.794 44.4297 225.365C44.4297 222.935 46.3983 220.966 48.8284 220.966C51.2576 220.966 53.2272 222.935 53.2272 225.365Z" fill="#3B6875"/>
<path d="M105.937 331.066C105.937 333.495 103.969 335.463 101.538 335.463C99.1083 335.463 97.1406 333.495 97.1406 331.066C97.1406 328.637 99.1083 326.666 101.538 326.666C103.969 326.666 105.937 328.637 105.937 331.066Z" fill="#3B6875"/>
<path d="M210.976 438.836C210.976 441.265 209.007 443.232 206.578 443.232C204.147 443.232 202.18 441.265 202.18 438.836C202.18 436.406 204.147 434.436 206.578 434.436C209.007 434.436 210.976 436.406 210.976 438.836Z" fill="#3B6875"/>
<path d="M322.769 435.831C322.769 438.261 320.801 440.229 318.371 440.229C315.941 440.229 313.973 438.261 313.973 435.831C313.973 433.402 315.941 431.432 318.371 431.432C320.801 431.432 322.769 433.402 322.769 435.831Z" fill="#3B6875"/>
<path d="M500.999 245.403C500.999 247.19 499.549 248.64 497.76 248.64C495.972 248.64 494.523 247.19 494.523 245.403C494.523 243.613 495.972 242.164 497.76 242.164C499.549 242.164 500.999 243.613 500.999 245.403Z" fill="#3B6875"/>
<path d="M454.292 124.439C454.292 126.227 452.843 127.677 451.053 127.677C449.265 127.677 447.816 126.227 447.816 124.439C447.816 122.65 449.265 121.201 451.053 121.201C452.843 121.201 454.292 122.65 454.292 124.439Z" fill="#3B6875"/>
<path d="M360.731 76.8411C360.731 78.6295 359.281 80.0781 357.493 80.0781C355.703 80.0781 354.254 78.6295 354.254 76.8411C354.254 75.0526 355.703 73.6031 357.493 73.6031C359.281 73.6031 360.731 75.0526 360.731 76.8411Z" fill="#3B6875"/>
<path d="M255.363 141.703C255.363 143.316 254.057 144.623 252.443 144.623C250.829 144.623 249.523 143.316 249.523 141.703C249.523 140.09 250.829 138.782 252.443 138.782C254.057 138.782 255.363 140.09 255.363 141.703Z" fill="#3B6875"/>
<path d="M147.347 79.2777C147.347 81.0661 145.898 82.5156 144.109 82.5156C142.32 82.5156 140.871 81.0661 140.871 79.2777C140.871 77.4892 142.32 76.0397 144.109 76.0397C145.898 76.0397 147.347 77.4892 147.347 79.2777Z" fill="#3B6875"/>
<path d="M58.0043 135.167C58.0043 136.956 56.5547 138.405 54.7663 138.405C52.9759 138.405 51.5273 136.956 51.5273 135.167C51.5273 133.379 52.9759 131.929 54.7663 131.929C56.5547 131.929 58.0043 133.379 58.0043 135.167Z" fill="#3B6875"/>
<path d="M6.47507 246.146C6.47507 247.935 5.02554 249.384 3.238 249.384C1.44767 249.384 0 247.935 0 246.146C0 244.358 1.44767 242.909 3.238 242.909C5.02554 242.909 6.47507 244.358 6.47507 246.146Z" fill="#3B6875"/>
<path d="M35.8657 344.439C35.8657 346.226 34.4162 347.677 32.6277 347.677C30.8383 347.677 29.3906 346.226 29.3906 344.439C29.3906 342.65 30.8383 341.201 32.6277 341.201C34.4162 341.201 35.8657 342.65 35.8657 344.439Z" fill="#3B6875"/>
<path d="M140.038 444.901C140.038 446.689 138.588 448.138 136.8 448.138C135.01 448.138 133.562 446.689 133.562 444.901C133.562 443.111 135.01 441.663 136.8 441.663C138.588 441.663 140.038 443.111 140.038 444.901Z" fill="#3B6875"/>
<path d="M258.631 511.779C258.631 513.567 257.182 515.017 255.394 515.017C253.604 515.017 252.156 513.567 252.156 511.779C252.156 509.99 253.604 508.541 255.394 508.541C257.182 508.541 258.631 509.99 258.631 511.779Z" fill="#3B6875"/>
<path d="M366.822 446.986C366.822 448.502 365.593 449.73 364.077 449.73C362.56 449.73 361.332 448.502 361.332 446.986C361.332 445.469 362.56 444.241 364.077 444.241C365.593 444.241 366.822 445.469 366.822 446.986Z" fill="#3B6875"/>
<path d="M176.716 339.405L176.43 338.943L249.063 294.088L249.348 294.552L176.716 339.405Z" fill="#3B6875"/>
<path d="M176.842 339.196L176.301 339.151L191.919 152.5L192.461 152.546L176.842 339.196Z" fill="#3B6875"/>
<path d="M176.543 339.445L100.887 331.337L100.945 330.795L176.601 338.903L176.543 339.445Z" fill="#3B6875"/>
<path d="M176.389 339.377L48.6484 225.567L49.0115 225.161L176.752 338.971L176.389 339.377Z" fill="#3B6875"/>
<path d="M176.583 339.447L176.555 338.903L326.981 331.057L327.008 331.601L176.583 339.447Z" fill="#3B6875"/>
<path d="M252.096 464.415L176.34 339.315L176.805 339.032L252.561 464.133L252.096 464.415Z" fill="#3B6875"/>
<path d="M252.564 464.408L252.09 464.143L326.76 331.197L327.234 331.463L252.564 464.408Z" fill="#3B6875"/>
<path d="M326.729 331.362L307.68 174.784L308.22 174.718L327.268 331.295L326.729 331.362Z" fill="#3B6875"/>
<path d="M252.286 464.543L135.676 444.846L135.766 444.31L252.376 464.007L252.286 464.543Z" fill="#3B6875"/>
<path d="M252.2 464.514L32.5039 344.678L32.7648 344.201L252.46 464.036L252.2 464.514Z" fill="#3B6875"/>
<path d="M252.433 464.525L252.219 464.026L318.284 435.633L318.498 436.134L252.433 464.525Z" fill="#3B6875"/>
<path d="M318.667 435.905L318.125 435.861L326.729 331.307L327.272 331.351L318.667 435.905Z" fill="#3B6875"/>
<path d="M409.117 369.21L326.883 331.576L327.11 331.081L409.345 368.715L409.117 369.21Z" fill="#3B6875"/>
<path d="M363.931 447.651L363.461 447.379L408.993 368.826L409.463 369.098L363.931 447.651Z" fill="#3B6875"/>
<path d="M450.12 381.358L409.156 369.222L409.312 368.701L450.275 380.837L450.12 381.358Z" fill="#3B6875"/>
<path d="M409.454 369.118L409.008 368.806L496.164 244.015L496.609 244.327L409.454 369.118Z" fill="#3B6875"/>
<path d="M409.503 368.988L408.961 368.935L420.116 253.013L420.658 253.065L409.503 368.988Z" fill="#3B6875"/>
<path d="M420.231 253.264L307.793 174.975L308.103 174.528L420.541 252.817L420.231 253.264Z" fill="#3B6875"/>
<path d="M327.172 331.537L326.824 331.121L420.215 252.832L420.563 253.248L327.172 331.537Z" fill="#3B6875"/>
<path d="M420.65 253.104L420.121 252.974L451.731 124.063L452.26 124.193L420.65 253.104Z" fill="#3B6875"/>
<path d="M420.423 253.31L420.359 252.769L496.36 243.9L496.423 244.442L420.423 253.31Z" fill="#3B6875"/>
<path d="M308.041 175.008L307.859 174.494L451.907 123.872L452.088 124.385L308.041 175.008Z" fill="#3B6875"/>
<path d="M96.6341 174.297L96.1484 174.053L143.868 79.1534L144.353 79.3976L96.6341 174.297Z" fill="#3B6875"/>
<path d="M49.0282 225.55L48.6289 225.179L96.1886 173.992L96.587 174.362L49.0282 225.55Z" fill="#3B6875"/>
<path d="M96.4479 174.441L96.3281 173.91L192.129 152.257L192.249 152.789L96.4479 174.441Z" fill="#3B6875"/>
<path d="M191.963 152.672L143.883 79.4245L144.338 79.1265L192.418 152.373L191.963 152.672Z" fill="#3B6875"/>
<path d="M248.9 224.042L191.98 152.694L192.405 152.355L249.326 223.703L248.9 224.042Z" fill="#3B6875"/>
<path d="M249.283 224.08L248.934 223.662L307.773 174.543L308.121 174.96L249.283 224.08Z" fill="#3B6875"/>
<path d="M249.383 223.886L248.84 223.859L252.989 141.862L253.531 141.89L249.383 223.886Z" fill="#3B6875"/>
<path d="M248.933 294.321L248.84 223.873L249.384 223.872L249.477 294.321H248.933Z" fill="#3B6875"/>
<path d="M3.39884 246.36L3.06641 245.93L96.2264 173.96L96.5589 174.391L3.39884 246.36Z" fill="#3B6875"/>
<path d="M32.8839 344.534L32.375 344.343L96.133 174.08L96.6419 174.271L32.8839 344.534Z" fill="#3B6875"/>
<path d="M192.238 152.791L192.145 152.255L253.213 141.608L253.307 142.143L192.238 152.791Z" fill="#3B6875"/>
<path d="M375.448 152.795L253.234 142.148L253.281 141.605L375.495 152.253L375.448 152.795Z" fill="#3B6875"/>
<path d="M375.209 152.585L357.652 76.1173L358.183 75.9957L375.74 152.462L375.209 152.585Z" fill="#3B6875"/>
<path d="M400.158 191.037L375.246 152.671L375.703 152.375L400.615 190.74L400.158 191.037Z" fill="#3B6875"/>
<path d="M255.119 512.868L251.945 464.357L252.489 464.32L255.662 512.832L255.119 512.868Z" fill="#3B6875"/>
<path d="M251.466 223.547C251.466 224.821 250.433 225.854 249.159 225.854C247.885 225.854 246.852 224.821 246.852 223.547C246.852 222.273 247.885 221.24 249.159 221.24C250.433 221.24 251.466 222.273 251.466 223.547Z" fill="#3B6875"/>
<path d="M194.286 152.795C194.286 154.069 193.253 155.103 191.979 155.103C190.704 155.103 189.672 154.069 189.672 152.795C189.672 151.521 190.704 150.488 191.979 150.488C193.253 150.488 194.286 151.521 194.286 152.795Z" fill="#3B6875"/>
<path d="M98.8945 174.176C98.8945 175.45 97.8619 176.482 96.5879 176.482C95.3138 176.482 94.2812 175.45 94.2812 174.176C94.2812 172.902 95.3138 171.869 96.5879 171.869C97.8619 171.869 98.8945 172.902 98.8945 174.176Z" fill="#3B6875"/>
<path d="M179.176 339.446C179.176 340.72 178.143 341.753 176.869 341.753C175.595 341.753 174.562 340.72 174.562 339.446C174.562 338.171 175.595 337.139 176.869 337.139C178.143 337.139 179.176 338.171 179.176 339.446Z" fill="#3B6875"/>
<path d="M254.087 464.274C254.087 465.548 253.054 466.581 251.78 466.581C250.506 466.581 249.473 465.548 249.473 464.274C249.473 462.999 250.506 461.967 251.78 461.967C253.054 461.967 254.087 462.999 254.087 464.274Z" fill="#3B6875"/>
<path d="M297.605 387.966C297.605 389.24 296.573 390.272 295.299 390.272C294.025 390.272 292.992 389.24 292.992 387.966C292.992 386.691 294.025 385.658 295.299 385.658C296.573 385.658 297.605 386.691 297.605 387.966Z" fill="#3B6875"/>
<path d="M271.489 334.655C271.489 335.929 270.457 336.964 269.182 336.964C267.908 336.964 266.875 335.929 266.875 334.655C266.875 333.381 267.908 332.349 269.182 332.349C270.457 332.349 271.489 333.381 271.489 334.655Z" fill="#3B6875"/>
<path d="M329.575 331.307C329.575 332.581 328.543 333.613 327.268 333.613C325.994 333.613 324.961 332.581 324.961 331.307C324.961 330.033 325.994 329 327.268 329C328.543 329 329.575 330.033 329.575 331.307Z" fill="#3B6875"/>
<path d="M374.868 352.452C374.868 353.726 373.835 354.76 372.561 354.76C371.286 354.76 370.254 353.726 370.254 352.452C370.254 351.178 371.286 350.146 372.561 350.146C373.835 350.146 374.868 351.178 374.868 352.452Z" fill="#3B6875"/>
<path d="M411.313 368.701C411.313 369.976 410.28 371.009 409.006 371.009C407.732 371.009 406.699 369.976 406.699 368.701C406.699 367.427 407.732 366.395 409.006 366.395C410.28 366.395 411.313 367.427 411.313 368.701Z" fill="#3B6875"/>
<path d="M422.66 253.013C422.66 254.288 421.628 255.32 420.353 255.32C419.079 255.32 418.047 254.288 418.047 253.013C418.047 251.739 419.079 250.706 420.353 250.706C421.628 250.706 422.66 251.739 422.66 253.013Z" fill="#3B6875"/>
<path d="M377.173 152.795C377.173 154.069 376.14 155.103 374.866 155.103C373.592 155.103 372.559 154.069 372.559 152.795C372.559 151.521 373.592 150.488 374.866 150.488C376.14 150.488 377.173 151.521 377.173 152.795Z" fill="#3B6875"/>
<path d="M239.126 336.082C239.126 337.357 238.093 338.39 236.819 338.39C235.544 338.39 234.512 337.357 234.512 336.082C234.512 334.808 235.544 333.775 236.819 333.775C238.093 333.775 239.126 334.808 239.126 336.082Z" fill="#3B6875"/>
<path d="M427.056 4.83452H385.252V5.29882L384.923 4.97286L357.453 76.9341L358.113 77.5869L385.461 5.76312H427.056V4.83452Z" fill="#E15A85"/>
<path d="M435.249 5.29918C435.249 7.5213 433.447 9.32277 431.225 9.32277C429.003 9.32277 427.202 7.5213 427.202 5.29918C427.202 3.07798 429.003 1.27558 431.225 1.27558C433.447 1.27558 435.249 3.07798 435.249 5.29918ZM436.525 5.29918C436.525 2.37318 434.151 -0.000280357 431.225 -0.000280357C428.299 -0.000280357 425.926 2.37318 425.926 5.29918C425.926 8.2261 428.299 10.5986 431.225 10.5986C434.151 10.5986 436.525 8.2261 436.525 5.29918Z" fill="#E15A85"/>
<path d="M433.419 5.2991C433.419 4.08543 432.436 3.10113 431.221 3.10113C430.007 3.10113 429.023 4.08543 429.023 5.2991C429.023 6.5137 430.007 7.49707 431.221 7.49707C432.436 7.49707 433.419 6.5137 433.419 5.2991Z" fill="#E15A85"/>
</svg>
