<svg width="66" height="29" viewBox="0 0 66 29" fill="none" xmlns="http://www.w3.org/2000/svg">
<path fill-rule="evenodd" clip-rule="evenodd" d="M0 27.6055C0 27.2711 0.217274 27 0.485294 27H65.5147C65.7827 27 66 27.2711 66 27.6055C66 27.9399 65.7827 28.211 65.5147 28.211H0.485294C0.217274 28.211 0 27.9399 0 27.6055Z" fill="#3B6875"/>
<mask id="mask0_2229_3947" style="mask-type:alpha" maskUnits="userSpaceOnUse" x="3" y="2" width="60" height="24">
<path fill-rule="evenodd" clip-rule="evenodd" d="M17.6 2.4H3.4V13.6H17.6V2.4ZM3 2V14H18V2H3Z" fill="#3B6875"/>
<path fill-rule="evenodd" clip-rule="evenodd" d="M32.6 2.4H18.4V13.6H32.6V2.4ZM18 2V14H33V2H18Z" fill="#3B6875"/>
<path fill-rule="evenodd" clip-rule="evenodd" d="M47.6 2.4H33.4V13.6H47.6V2.4ZM33 2V14H48V2H33Z" fill="#3B6875"/>
<path fill-rule="evenodd" clip-rule="evenodd" d="M62.6 2.4H48.4V13.6H62.6V2.4ZM48 2V14H63V2H48Z" fill="#3B6875"/>
<path fill-rule="evenodd" clip-rule="evenodd" d="M17.6 14.4H3.4V25.6H17.6V14.4ZM3 14V26H18V14H3Z" fill="#3B6875"/>
<path fill-rule="evenodd" clip-rule="evenodd" d="M32.6 14.4H18.4V25.6H32.6V14.4ZM18 14V26H33V14H18Z" fill="#3B6875"/>
<path fill-rule="evenodd" clip-rule="evenodd" d="M47.6 14.4H33.4V25.6H47.6V14.4ZM33 14V26H48V14H33Z" fill="#3B6875"/>
<path fill-rule="evenodd" clip-rule="evenodd" d="M62.6 14.4H48.4V25.6H62.6V14.4ZM48 14V26H63V14H48Z" fill="#3B6875"/>
</mask>
<g mask="url(#mask0_2229_3947)">
<path d="M7 14C7 7.37258 12.3726 2 19 2H46C52.6274 2 58 7.37258 58 14C58 20.6274 52.6274 26 46 26H19C12.3726 26 7 20.6274 7 14Z" fill="url(#paint0_radial_2229_3947)"/>
</g>
<path d="M61.6488 22.9595C61.3618 22.9595 61.067 22.9284 60.7644 22.8664C60.4619 22.8043 60.1826 22.6996 59.9266 22.5522C59.6705 22.397 59.4533 22.1914 59.2749 21.9354C59.0965 21.6716 58.9801 21.3458 58.9258 20.9579H60.5782C60.6248 21.0976 60.7062 21.2178 60.8226 21.3187C60.9467 21.4195 61.0864 21.4932 61.2415 21.5398C61.4044 21.5863 61.5674 21.6096 61.7303 21.6096C61.8389 21.6096 61.9475 21.6018 62.0561 21.5863C62.1647 21.5708 62.2656 21.5398 62.3587 21.4932C62.4518 21.4467 62.5255 21.3885 62.5798 21.3187C62.6341 21.2411 62.6612 21.1441 62.6612 21.0277C62.6612 20.9036 62.6224 20.8066 62.5449 20.7368C62.4673 20.667 62.3587 20.6127 62.219 20.5739C62.0794 20.5274 61.9203 20.4847 61.7419 20.4459C61.4238 20.3761 61.0825 20.2985 60.7179 20.2132C60.3532 20.1278 60.039 20.0037 59.7753 19.8408C59.6667 19.7632 59.5697 19.6779 59.4844 19.5848C59.399 19.4917 59.3292 19.3869 59.2749 19.2706C59.2206 19.1542 59.1779 19.0339 59.1469 18.9098C59.1159 18.7779 59.1003 18.6383 59.1003 18.4909C59.1003 18.1573 59.1702 17.8741 59.3098 17.6414C59.4572 17.4009 59.6511 17.207 59.8916 17.0596C60.1321 16.9122 60.3998 16.8074 60.6946 16.7454C60.9894 16.6755 61.292 16.6406 61.6023 16.6406C62.0212 16.6406 62.4091 16.7104 62.766 16.8501C63.1228 16.982 63.4176 17.1914 63.6504 17.4785C63.8831 17.7578 64.0266 18.1224 64.0809 18.5724H62.5216C62.4906 18.4017 62.3858 18.2659 62.2074 18.1651C62.029 18.0564 61.8079 18.0021 61.5441 18.0021C61.451 18.0021 61.3501 18.0099 61.2415 18.0254C61.1407 18.0409 61.0476 18.0681 60.9622 18.1069C60.8769 18.1457 60.8071 18.2 60.7528 18.2698C60.6985 18.3319 60.6713 18.4172 60.6713 18.5258C60.6713 18.6111 60.6946 18.6887 60.7411 18.7585C60.7954 18.8284 60.8691 18.8865 60.9622 18.9331C61.0631 18.9796 61.1833 19.0223 61.323 19.0611C61.5868 19.1232 61.8505 19.1813 62.1143 19.2357C62.3858 19.2822 62.6263 19.3326 62.8358 19.3869C63.0918 19.4412 63.3245 19.5305 63.534 19.6546C63.7512 19.7787 63.9258 19.9494 64.0577 20.1666C64.1973 20.3761 64.2671 20.6515 64.2671 20.9928C64.2671 21.3807 64.1895 21.7027 64.0344 21.9587C63.8792 22.2069 63.6698 22.4048 63.406 22.5522C63.15 22.6996 62.8668 22.8043 62.5565 22.8664C62.2539 22.9284 61.9514 22.9595 61.6488 22.9595Z" fill="#3B6875"/>
<path d="M56.3306 22.878V16.7453H57.9598V22.878H56.3306ZM57.1452 16.1286C56.8427 16.1286 56.5983 16.0394 56.4121 15.8609C56.2259 15.6747 56.1328 15.4381 56.1328 15.1511C56.1328 14.8485 56.2298 14.6041 56.4237 14.418C56.6177 14.2318 56.8621 14.1387 57.1569 14.1387C57.4284 14.1387 57.6611 14.2318 57.8551 14.418C58.0568 14.5964 58.1576 14.8369 58.1576 15.1394C58.1576 15.4342 58.0607 15.6747 57.8667 15.8609C57.6805 16.0394 57.44 16.1286 57.1452 16.1286Z" fill="#3B6875"/>
<path d="M52.7621 22.9595C52.4751 22.9595 52.1803 22.9284 51.8777 22.8664C51.5751 22.8043 51.2958 22.6996 51.0398 22.5522C50.7838 22.397 50.5666 22.1914 50.3882 21.9354C50.2097 21.6716 50.0934 21.3458 50.0391 20.9579H51.6915C51.738 21.0976 51.8195 21.2178 51.9359 21.3187C52.06 21.4195 52.1996 21.4932 52.3548 21.5398C52.5177 21.5863 52.6806 21.6096 52.8436 21.6096C52.9522 21.6096 53.0608 21.6018 53.1694 21.5863C53.278 21.5708 53.3789 21.5398 53.4719 21.4932C53.565 21.4467 53.6387 21.3885 53.693 21.3187C53.7474 21.2411 53.7745 21.1441 53.7745 21.0277C53.7745 20.9036 53.7357 20.8066 53.6581 20.7368C53.5806 20.667 53.472 20.6127 53.3323 20.5739C53.1927 20.5274 53.0336 20.4847 52.8552 20.4459C52.5371 20.3761 52.1958 20.2985 51.8311 20.2132C51.4665 20.1278 51.1523 20.0037 50.8886 19.8408C50.7799 19.7632 50.683 19.6779 50.5976 19.5848C50.5123 19.4917 50.4425 19.3869 50.3882 19.2706C50.3339 19.1542 50.2912 19.0339 50.2602 18.9098C50.2291 18.7779 50.2136 18.6383 50.2136 18.4909C50.2136 18.1573 50.2834 17.8741 50.4231 17.6414C50.5705 17.4009 50.7644 17.207 51.0049 17.0596C51.2454 16.9122 51.5131 16.8074 51.8079 16.7454C52.1027 16.6755 52.4052 16.6406 52.7155 16.6406C53.1345 16.6406 53.5224 16.7104 53.8792 16.8501C54.2361 16.982 54.5309 17.1914 54.7636 17.4785C54.9964 17.7578 55.1399 18.1224 55.1942 18.5724H53.6349C53.6038 18.4017 53.4991 18.2659 53.3207 18.1651C53.1422 18.0564 52.9211 18.0021 52.6574 18.0021C52.5643 18.0021 52.4634 18.0099 52.3548 18.0254C52.254 18.0409 52.1609 18.0681 52.0755 18.1069C51.9902 18.1457 51.9204 18.2 51.8661 18.2698C51.8118 18.3319 51.7846 18.4172 51.7846 18.5258C51.7846 18.6111 51.8079 18.6887 51.8544 18.7585C51.9087 18.8284 51.9824 18.8865 52.0755 18.9331C52.1764 18.9796 52.2966 19.0223 52.4363 19.0611C52.7 19.1232 52.9638 19.1813 53.2276 19.2357C53.4991 19.2822 53.7396 19.3326 53.9491 19.3869C54.2051 19.4412 54.4378 19.5305 54.6473 19.6546C54.8645 19.7787 55.0391 19.9494 55.1709 20.1666C55.3106 20.3761 55.3804 20.6515 55.3804 20.9928C55.3804 21.3807 55.3028 21.7027 55.1477 21.9587C54.9925 22.2069 54.783 22.4048 54.5193 22.5522C54.2633 22.6996 53.9801 22.8043 53.6698 22.8664C53.3672 22.9284 53.0647 22.9595 52.7621 22.9595Z" fill="#3B6875"/>
<path d="M45.9031 25.7055C45.4299 25.7055 44.9683 25.6435 44.5183 25.5193C44.0684 25.3952 43.6456 25.1858 43.2499 24.891L43.7969 23.5876C44.0451 23.7738 44.3283 23.9212 44.6463 24.0298C44.9644 24.1462 45.3174 24.2044 45.7053 24.2044C46.3027 24.2044 46.7449 24.0647 47.0319 23.7854C47.3267 23.5062 47.4741 23.1027 47.4741 22.5752V22.2494C47.3422 22.4278 47.1754 22.5713 46.9737 22.6799C46.7798 22.7808 46.5703 22.8545 46.3453 22.901C46.1204 22.9476 45.8954 22.9709 45.6704 22.9709C45.0808 22.9709 44.6076 22.8467 44.2507 22.5985C43.8938 22.3502 43.6339 22.0128 43.471 21.5861C43.3159 21.1516 43.2383 20.659 43.2383 20.1082V16.7451H44.8674V19.7707C44.8674 19.9724 44.8791 20.1741 44.9024 20.3758C44.9256 20.5775 44.9799 20.7637 45.0653 20.9344C45.1506 21.1051 45.2786 21.2447 45.4493 21.3533C45.62 21.4542 45.8488 21.5046 46.1359 21.5046C46.5083 21.5046 46.7875 21.4154 46.9737 21.237C47.1599 21.0508 47.284 20.818 47.3461 20.5387C47.4159 20.2595 47.4508 19.9685 47.4508 19.666V16.7451H49.08V21.9934C49.08 22.5519 49.0257 23.0601 48.9171 23.5178C48.8162 23.9755 48.6417 24.3673 48.3934 24.6931C48.1529 25.019 47.8271 25.2672 47.4159 25.4379C47.0125 25.6163 46.5083 25.7055 45.9031 25.7055Z" fill="#3B6875"/>
<path d="M40.2734 22.8776V14.6387H41.9026V22.8776H40.2734Z" fill="#3B6875"/>
<path d="M35.602 22.9595C35.3228 22.9595 35.0512 22.9246 34.7875 22.8548C34.5315 22.7772 34.3026 22.6609 34.1009 22.5057C33.8992 22.3505 33.7401 22.1566 33.6238 21.9239C33.5074 21.6911 33.4492 21.4196 33.4492 21.1093C33.4492 20.6904 33.5346 20.3568 33.7052 20.1085C33.8759 19.8525 34.1048 19.6585 34.3918 19.5267C34.6789 19.3948 35.0086 19.3056 35.3809 19.259C35.7611 19.2125 36.1529 19.1892 36.5563 19.1892H37.4407C37.4407 18.9642 37.398 18.7664 37.3127 18.5957C37.2351 18.4173 37.1148 18.2815 36.9519 18.1884C36.789 18.0876 36.5795 18.0371 36.3235 18.0371C36.1606 18.0371 36.0016 18.0604 35.8464 18.107C35.699 18.1457 35.5749 18.2039 35.474 18.2815C35.3732 18.3591 35.3072 18.4599 35.2762 18.5841H33.6238C33.6703 18.2427 33.7789 17.9518 33.9496 17.7113C34.1203 17.463 34.3336 17.2613 34.5896 17.1062C34.8456 16.951 35.1249 16.8385 35.4275 16.7687C35.7378 16.6911 36.0559 16.6523 36.3817 16.6523C37.2739 16.6523 37.9333 16.9084 38.36 17.4204C38.7867 17.9246 39 18.6423 39 19.5732V22.8781H37.5338L37.5105 22.0868C37.3166 22.3583 37.0954 22.5561 36.8472 22.6803C36.6067 22.8044 36.374 22.882 36.149 22.913C35.924 22.944 35.7417 22.9595 35.602 22.9595ZM35.9744 21.6679C36.246 21.6679 36.4942 21.6135 36.7192 21.5049C36.9442 21.3963 37.1226 21.2489 37.2545 21.0627C37.3864 20.8765 37.4523 20.6671 37.4523 20.4343V20.2831H36.3352C36.1723 20.2831 36.0132 20.2908 35.8581 20.3063C35.7107 20.3218 35.5749 20.3529 35.4508 20.3994C35.3344 20.4382 35.2413 20.5042 35.1715 20.5973C35.1017 20.6904 35.0667 20.8145 35.0667 20.9696C35.0667 21.1248 35.1055 21.2567 35.1831 21.3653C35.2685 21.4661 35.3809 21.5437 35.5206 21.598C35.6602 21.6446 35.8115 21.6679 35.9744 21.6679Z" fill="#3B6875"/>
<path d="M26.6133 22.878V16.7454H28.1377L28.2192 17.4552C28.3898 17.2457 28.5838 17.0828 28.801 16.9665C29.026 16.8423 29.251 16.757 29.476 16.7104C29.7087 16.6639 29.9182 16.6406 30.1044 16.6406C30.694 16.6406 31.1517 16.7686 31.4775 17.0246C31.8111 17.2807 32.0477 17.6259 32.1874 18.0603C32.3348 18.487 32.4085 18.9641 32.4085 19.4917V22.878H30.7793V19.7011C30.7793 19.5149 30.7638 19.3288 30.7327 19.1426C30.7017 18.9564 30.6435 18.7857 30.5582 18.6305C30.4806 18.4754 30.3681 18.3512 30.2207 18.2582C30.0733 18.1651 29.8794 18.1185 29.6389 18.1185C29.3286 18.1185 29.0687 18.1961 28.8592 18.3512C28.6497 18.5064 28.4946 18.7159 28.3937 18.9796C28.2929 19.2434 28.2424 19.5343 28.2424 19.8524V22.878H26.6133Z" fill="#3B6875"/>
<path d="M17.7109 22.8776L20.9227 14.6387H22.7846L25.9615 22.8776H24.1694L23.6574 21.4695H20.015L19.503 22.8776H17.7109ZM20.5503 19.9684H23.1337L21.8537 16.4075L20.5503 19.9684Z" fill="#3B6875"/>
<path d="M37.7378 8.42512C36.8999 8.42512 36.1862 8.25057 35.5966 7.90146C35.007 7.5446 34.557 7.05197 34.2467 6.42357C33.9364 5.78742 33.7812 5.04654 33.7812 4.20092C33.7812 3.57253 33.8666 3.00232 34.0373 2.4903C34.2157 1.97052 34.4717 1.52444 34.8053 1.15205C35.1466 0.779673 35.5617 0.496508 36.0504 0.302559C36.5392 0.100853 37.0939 0 37.7145 0C38.3429 0 38.9054 0.100853 39.4019 0.302559C39.8984 0.504266 40.3096 0.806825 40.6354 1.21024C40.969 1.60589 41.1862 2.1024 41.2871 2.69976H39.5997C39.5376 2.44375 39.4252 2.23429 39.2622 2.07137C39.0993 1.9007 38.8937 1.77269 38.6455 1.68735C38.405 1.60201 38.1296 1.55935 37.8193 1.55935C37.3926 1.55935 37.0318 1.63305 36.737 1.78045C36.4422 1.92785 36.2017 2.12955 36.0155 2.38557C35.8371 2.63382 35.7052 2.92086 35.6199 3.2467C35.5423 3.56477 35.5035 3.89449 35.5035 4.23583C35.5035 4.70131 35.5811 5.13576 35.7363 5.53917C35.8914 5.93482 36.1358 6.25678 36.4694 6.50503C36.803 6.74553 37.2452 6.86578 37.796 6.86578C38.1606 6.86578 38.4826 6.81147 38.7618 6.70286C39.0489 6.58649 39.2778 6.41582 39.4484 6.19083C39.6269 5.9581 39.7277 5.67881 39.751 5.35298H37.5051V3.92164H41.4616V4.37548C41.4616 5.21334 41.322 5.93482 41.0427 6.53994C40.7634 7.14506 40.3483 7.61054 39.7975 7.93637C39.2467 8.26221 38.5601 8.42512 37.7378 8.42512Z" fill="#3B6875"/>
<path d="M29.3158 8.42512C28.4702 8.42512 27.7487 8.25445 27.1514 7.9131C26.5618 7.56399 26.1118 7.07524 25.8015 6.44685C25.4989 5.81845 25.3477 5.08533 25.3477 4.24747C25.3477 3.3941 25.5028 2.64934 25.8131 2.01318C26.1312 1.37703 26.585 0.884405 27.1747 0.535298C27.7643 0.178433 28.4741 0 29.3042 0C29.9326 0 30.495 0.108611 30.9916 0.325833C31.4881 0.535298 31.8876 0.849494 32.1902 1.26842C32.5005 1.67959 32.6944 2.18774 32.772 2.79286H31.1661C31.0653 2.41272 30.8597 2.11404 30.5494 1.89682C30.2468 1.67184 29.8434 1.55935 29.3391 1.55935C28.7805 1.55935 28.3345 1.68735 28.0009 1.94336C27.675 2.19162 27.4384 2.51745 27.291 2.92086C27.1436 3.31652 27.0699 3.73545 27.0699 4.17765C27.0699 4.63537 27.1475 5.06981 27.3027 5.48098C27.4578 5.89215 27.7022 6.22575 28.0358 6.48176C28.3771 6.73777 28.8232 6.86578 29.374 6.86578C29.6999 6.86578 29.9908 6.81923 30.2468 6.72613C30.5028 6.62528 30.7123 6.48176 30.8752 6.29557C31.0459 6.10938 31.1622 5.88828 31.2243 5.63226H32.8884C32.8186 6.22962 32.6168 6.73777 32.2833 7.1567C31.9497 7.57563 31.5269 7.8937 31.0148 8.11093C30.5028 8.32039 29.9365 8.42512 29.3158 8.42512Z" fill="#3B6875"/>
<path d="M18.5703 8.33171V0.0927734H24.5051V1.64048H20.2344V3.50239H23.9V4.99191H20.2344V6.79563H24.5051V8.33171H18.5703Z" fill="#3B6875"/>
<path fill-rule="evenodd" clip-rule="evenodd" d="M13.7086 10.2769L12.9551 15.4176L11.144 11.8874H9.95321L9.52226 11.2573L8.72234 12.2968H2.84029C2.37621 12.2968 2 11.9302 2 11.4779C2 11.0256 2.37621 10.6589 2.84029 10.6589H7.88204L9.603 8.42247L10.8526 10.2494H12.015L12.9322 3.99121L14.5979 4.00545L15.6088 11.8874H16.1858L17.3152 9.6858L18.7338 11.0684H21.7469C22.2109 11.0684 22.5872 11.435 22.5872 11.8874C22.5872 12.3397 22.2109 12.7063 21.7469 12.7063H18.0376L17.7756 12.4509L17.2244 13.5253H16.6322L16.2815 17.2849L14.6109 17.3123L13.7086 10.2769Z" fill="white"/>
<path fill-rule="evenodd" clip-rule="evenodd" d="M13.7092 6.69849L12.7211 13.9398L11.4204 11.216H10.2177L9.59406 10.2366L8.58322 11.6477H3.01773C2.79004 11.6477 2.60547 11.4544 2.60547 11.216C2.60547 10.9777 2.79004 10.7844 3.01773 10.7844H8.17096L9.63367 8.74252L10.659 10.3528H11.9299L12.2782 11.082L13.3283 3.38574L14.1455 3.39325L15.3208 13.2368L15.4213 12.0793H16.3675L17.3338 10.0558L18.4421 11.216H21.5694C21.797 11.216 21.9816 11.4093 21.9816 11.6477C21.9816 11.8861 21.797 12.0793 21.5694 12.0793H18.1005L17.5597 11.5131L16.877 12.9426H16.1742L15.796 17.2979L14.9764 17.3123L13.7092 6.69849Z" fill="#3B6875"/>
<path d="M23.1915 11.5606C23.1915 12.0622 22.7849 12.4689 22.2833 12.4689C21.7816 12.4689 21.375 12.0622 21.375 11.5606C21.375 11.059 21.7816 10.6523 22.2833 10.6523C22.7849 10.6523 23.1915 11.059 23.1915 11.5606Z" fill="#3B6875"/>
<defs>
<radialGradient id="paint0_radial_2229_3947" cx="0" cy="0" r="1" gradientUnits="userSpaceOnUse" gradientTransform="translate(32.5 14) rotate(90) scale(12 25.5)">
<stop stop-color="#BAD9E2"/>
<stop offset="1" stop-color="#799CA6" stop-opacity="0"/>
</radialGradient>
</defs>
</svg>
