<svg width="34" height="32" viewBox="0 0 34 32" fill="none" xmlns="http://www.w3.org/2000/svg">
<path fill-rule="evenodd" clip-rule="evenodd" d="M23.9991 7.66727H2.66657C1.93022 7.66727 1.33329 8.2642 1.33329 9.00055V28.9998C1.33329 29.7362 1.93022 30.3331 2.66657 30.3331H23.9991C24.7355 30.3331 25.3324 29.7362 25.3324 28.9998V9.00055C25.3324 8.2642 24.7355 7.66727 23.9991 7.66727ZM2.66657 6.33398C1.19386 6.33398 0 7.52785 0 9.00055V28.9998C0 30.4725 1.19386 31.6664 2.66657 31.6664H23.9991C25.4718 31.6664 26.6657 30.4725 26.6657 28.9998V9.00055C26.6657 7.52785 25.4718 6.33398 23.9991 6.33398H2.66657Z" fill="#3B6875"/>
<path fill-rule="evenodd" clip-rule="evenodd" d="M4.84115 11.9492C4.96268 11.9492 5.06121 12.0477 5.06121 12.1693V26.2529C5.06121 26.3744 4.96268 26.473 4.84115 26.473C4.71962 26.473 4.62109 26.3744 4.62109 26.2529V12.1693C4.62109 12.0477 4.71962 11.9492 4.84115 11.9492Z" fill="#3B6875"/>
<path fill-rule="evenodd" clip-rule="evenodd" d="M9.24349 11.9492C9.36503 11.9492 9.46355 12.0477 9.46355 12.1693V26.2529C9.46355 26.3744 9.36503 26.473 9.24349 26.473C9.12196 26.473 9.02344 26.3744 9.02344 26.2529V12.1693C9.02344 12.0477 9.12196 11.9492 9.24349 11.9492Z" fill="#3B6875"/>
<path fill-rule="evenodd" clip-rule="evenodd" d="M13.6458 11.9492C13.7674 11.9492 13.8659 12.0477 13.8659 12.1693V26.2529C13.8659 26.3744 13.7674 26.473 13.6458 26.473C13.5243 26.473 13.4258 26.3744 13.4258 26.2529V12.1693C13.4258 12.0477 13.5243 11.9492 13.6458 11.9492Z" fill="#3B6875"/>
<path fill-rule="evenodd" clip-rule="evenodd" d="M17.1615 11.9492C17.283 11.9492 17.3815 12.0477 17.3815 12.1693V26.2529C17.3815 26.3744 17.283 26.473 17.1615 26.473C17.0399 26.473 16.9414 26.3744 16.9414 26.2529V12.1693C16.9414 12.0477 17.0399 11.9492 17.1615 11.9492Z" fill="#3B6875"/>
<path fill-rule="evenodd" clip-rule="evenodd" d="M21.5638 11.9492C21.6853 11.9492 21.7839 12.0477 21.7839 12.1693V26.2529C21.7839 26.3744 21.6853 26.473 21.5638 26.473C21.4423 26.473 21.3438 26.3744 21.3438 26.2529V12.1693C21.3438 12.0477 21.4423 11.9492 21.5638 11.9492Z" fill="#3B6875"/>
<path fill-rule="evenodd" clip-rule="evenodd" d="M13.5931 18.8007L12.8038 24.3258L10.9067 20.5316H9.65931L9.20788 19.8544L8.36994 20.9717H2.20835C1.72222 20.9717 1.32812 20.5776 1.32812 20.0914C1.32812 19.6053 1.72222 19.2112 2.20835 19.2112H7.48971L9.29245 16.8076L10.6015 18.7711H11.819L12.7799 12.0449L14.5247 12.0602L15.5837 20.5316H16.1881L17.3712 18.1654L18.8572 19.6513H22.0135C22.4996 19.6513 22.8937 20.0454 22.8937 20.5316C22.8937 21.0177 22.4996 21.4118 22.0135 21.4118H18.128L17.8535 21.1373L17.2761 22.292H16.6557L16.2884 26.3327L14.5383 26.3622L13.5931 18.8007Z" fill="white"/>
<path fill-rule="evenodd" clip-rule="evenodd" d="M13.6274 15.0439L12.5726 22.4276L11.1839 19.6503H9.90005L9.23422 18.6516L8.15508 20.0904H2.21355C1.97048 20.0904 1.77344 19.8934 1.77344 19.6503C1.77344 19.4072 1.97048 19.2102 2.21355 19.2102H7.71497L9.27651 17.1281L10.3711 18.7701H11.7279L12.0997 19.5136L13.2208 11.666L14.0932 11.6737L15.3479 21.7108L15.4552 20.5305H16.4653L17.497 18.4672L18.6801 19.6503H22.0187C22.2617 19.6503 22.4588 19.8473 22.4588 20.0904C22.4588 20.3335 22.2617 20.5305 22.0187 20.5305H18.3154L17.7381 19.9532L17.0093 21.4108H16.259L15.8553 25.8517L14.9802 25.8665L13.6274 15.0439Z" fill="#3B6875"/>
<path d="M23.3308 20.0902C23.3308 20.5763 22.9367 20.9704 22.4505 20.9704C21.9644 20.9704 21.5703 20.5763 21.5703 20.0902C21.5703 19.6041 21.9644 19.21 22.4505 19.21C22.9367 19.21 23.3308 19.6041 23.3308 20.0902Z" fill="#3B6875"/>
<path fill-rule="evenodd" clip-rule="evenodd" d="M2.86328 14.8079C2.86328 14.6864 2.9618 14.5879 3.08334 14.5879H23.7687C23.8902 14.5879 23.9887 14.6864 23.9887 14.8079C23.9887 14.9295 23.8902 15.028 23.7687 15.028H3.08334C2.9618 15.028 2.86328 14.9295 2.86328 14.8079ZM2.86328 24.4904C2.86328 24.3689 2.9618 24.2704 3.08334 24.2704H23.7687C23.8902 24.2704 23.9887 24.3689 23.9887 24.4904C23.9887 24.612 23.8902 24.7105 23.7687 24.7105H3.08334C2.9618 24.7105 2.86328 24.612 2.86328 24.4904Z" fill="#3B6875"/>
<path d="M33.8359 10.918C33.8359 16.9478 28.9478 21.8359 22.918 21.8359C16.8881 21.8359 12 16.9478 12 10.918C12 4.88814 16.8881 0 22.918 0C28.9478 0 33.8359 4.88814 33.8359 10.918Z" fill="white"/>
<path fill-rule="evenodd" clip-rule="evenodd" d="M17.6019 5.02206C17.3235 5.02206 17.0979 5.23052 17.0979 5.48768V8.01347C17.0979 8.27062 16.8722 8.47908 16.5939 8.47908C16.3155 8.47908 16.0898 8.27062 16.0898 8.01347V5.48768C16.0898 4.71621 16.7668 4.09082 17.6019 4.09082H20.4129C20.6913 4.09082 20.9169 4.29929 20.9169 4.55644C20.9169 4.81359 20.6913 5.02206 20.4129 5.02206H17.6019Z" fill="#3B6875"/>
<path fill-rule="evenodd" clip-rule="evenodd" d="M16.5875 12.8672C16.8624 12.8672 17.0852 13.0886 17.0852 13.3617V16.2106C17.0852 16.4838 17.308 16.7052 17.5828 16.7052H20.4193C20.6941 16.7052 20.9169 16.9266 20.9169 17.1997C20.9169 17.4729 20.6941 17.6943 20.4193 17.6943H17.5828C16.7583 17.6943 16.0898 17.03 16.0898 16.2106V13.3617C16.0898 13.0886 16.3127 12.8672 16.5875 12.8672Z" fill="#3B6875"/>
<path fill-rule="evenodd" clip-rule="evenodd" d="M24.8789 4.59483C24.8789 4.31647 25.101 4.09082 25.375 4.09082H28.2177C29.0397 4.09082 29.706 4.76778 29.706 5.60285V8.4139C29.706 8.69226 29.4839 8.91791 29.2099 8.91791C28.9359 8.91791 28.7138 8.69226 28.7138 8.4139V5.60285C28.7138 5.3245 28.4917 5.09884 28.2177 5.09884H25.375C25.101 5.09884 24.8789 4.87319 24.8789 4.59483Z" fill="#3B6875"/>
<path fill-rule="evenodd" clip-rule="evenodd" d="M29.2115 12.8672C29.4846 12.8672 29.706 13.09 29.706 13.3648V16.2013C29.706 17.0258 29.0418 17.6943 28.2224 17.6943H25.3735C25.1003 17.6943 24.8789 17.4715 24.8789 17.1966C24.8789 16.9218 25.1003 16.699 25.3735 16.699H28.2224C28.4955 16.699 28.7169 16.4761 28.7169 16.2013V13.3648C28.7169 13.09 28.9383 12.8672 29.2115 12.8672Z" fill="#3B6875"/>
<path fill-rule="evenodd" clip-rule="evenodd" d="M20.4904 8.38569C20.7448 7.90456 21.2514 7.60254 21.8041 7.60254H24.0533C24.5791 7.60254 25.0653 7.87601 25.3307 8.32095L25.4212 8.47273C25.5097 8.62104 25.6718 8.7122 25.847 8.7122H26.0246C26.8419 8.7122 27.5044 9.36178 27.5044 10.1631V12.7341C27.5044 13.5354 26.8419 14.1849 26.0246 14.1849H19.7689C18.9516 14.1849 18.2891 13.5354 18.2891 12.7341V10.1631C18.2891 9.36178 18.9516 8.7122 19.7689 8.7122H20.0178C20.2021 8.7122 20.371 8.61152 20.4558 8.45115L20.4904 8.38569ZM21.8041 8.5698C21.6199 8.5698 21.451 8.67047 21.3662 8.83084L21.3316 8.89631C21.0772 9.37743 20.5706 9.67945 20.0178 9.67945H19.7689C19.4964 9.67945 19.2756 9.89598 19.2756 10.1631V12.7341C19.2756 13.0012 19.4964 13.2177 19.7689 13.2177H26.0246C26.297 13.2177 26.5179 13.0012 26.5179 12.7341V10.1631C26.5179 9.89598 26.297 9.67945 26.0246 9.67945H25.847C25.3213 9.67945 24.8351 9.40598 24.5697 8.96105L24.4791 8.80927C24.3907 8.66095 24.2286 8.5698 24.0533 8.5698H21.8041Z" fill="#3B6875"/>
<path opacity="0.9" fill-rule="evenodd" clip-rule="evenodd" d="M22.8888 11.9633C23.4173 11.9633 23.8457 11.5825 23.8457 11.1127C23.8457 10.643 23.4173 10.2621 22.8888 10.2621C22.3603 10.2621 21.9319 10.643 21.9319 11.1127C21.9319 11.5825 22.3603 11.9633 22.8888 11.9633ZM22.8888 12.868C23.9794 12.868 24.8635 12.0822 24.8635 11.1127C24.8635 10.1433 23.9794 9.35742 22.8888 9.35742C21.7982 9.35742 20.9141 10.1433 20.9141 11.1127C20.9141 12.0822 21.7982 12.868 22.8888 12.868Z" fill="#3B6875"/>
</svg>
