<svg width="24" height="24" viewBox="0 0 24 24" fill="none" xmlns="http://www.w3.org/2000/svg">
<path fill-rule="evenodd" clip-rule="evenodd" d="M12 1.5C12.1989 1.5 12.3897 1.57902 12.5303 1.71967C12.671 1.86032 12.75 2.05109 12.75 2.25V4.5C12.75 4.69891 12.671 4.88968 12.5303 5.03033C12.3897 5.17098 12.1989 5.25 12 5.25C11.8011 5.25 11.6103 5.17098 11.4697 5.03033C11.329 4.88968 11.25 4.69891 11.25 4.5V2.25C11.25 2.05109 11.329 1.86032 11.4697 1.71967C11.6103 1.57902 11.8011 1.5 12 1.5ZM5.636 4.136C5.77663 3.99555 5.96725 3.91666 6.166 3.91666C6.36475 3.91666 6.55537 3.99555 6.696 4.136L8.288 5.727C8.42455 5.86852 8.50006 6.058 8.49826 6.25465C8.49646 6.4513 8.41749 6.63937 8.27837 6.77836C8.13925 6.91735 7.9511 6.99614 7.75445 6.99776C7.5578 6.99937 7.36839 6.92369 7.227 6.787L5.636 5.197C5.56631 5.12735 5.51102 5.04465 5.4733 4.95362C5.43558 4.8626 5.41616 4.76503 5.41616 4.6665C5.41616 4.56797 5.43558 4.4704 5.4733 4.37938C5.51102 4.28835 5.56631 4.20565 5.636 4.136ZM18.364 4.136C18.5045 4.27663 18.5833 4.46725 18.5833 4.666C18.5833 4.86475 18.5045 5.05537 18.364 5.196L16.773 6.788C16.6315 6.92455 16.442 7.00006 16.2453 6.99826C16.0487 6.99646 15.8606 6.91749 15.7216 6.77837C15.5826 6.63925 15.5039 6.4511 15.5022 6.25445C15.5006 6.0578 15.5763 5.86839 15.713 5.727L17.303 4.136C17.3727 4.06631 17.4554 4.01102 17.5464 3.9733C17.6374 3.93558 17.735 3.91616 17.8335 3.91616C17.932 3.91616 18.0296 3.93558 18.1206 3.9733C18.2116 4.01102 18.2943 4.06631 18.364 4.136ZM11.548 8.632C11.7 8.59124 11.861 8.59934 12.0082 8.65516C12.1554 8.71097 12.2812 8.81167 12.368 8.943L17.596 16.86C17.6778 16.9838 17.721 17.1292 17.7202 17.2776C17.7194 17.426 17.6745 17.5709 17.5913 17.6938C17.5081 17.8167 17.3903 17.9122 17.2529 17.9681C17.1154 18.024 16.9644 18.0379 16.819 18.008L14.722 17.578L15.767 21.478C15.8185 21.6703 15.7914 21.8751 15.6918 22.0475C15.5922 22.2198 15.4283 22.3455 15.236 22.397C15.0437 22.4485 14.8389 22.4214 14.6665 22.3218C14.4942 22.2222 14.3685 22.0583 14.317 21.866L13.273 17.967L11.672 19.387C11.561 19.4857 11.4233 19.5492 11.2762 19.5695C11.1291 19.5898 10.9793 19.566 10.8458 19.5011C10.7123 19.4362 10.601 19.3331 10.5261 19.2049C10.4512 19.0767 10.416 18.9292 10.425 18.781L10.994 9.311C11.0033 9.15385 11.0618 9.00362 11.1612 8.88157C11.2607 8.75953 11.396 8.67186 11.548 8.631V8.632ZM3 10.5C3 10.3011 3.07902 10.1103 3.21967 9.96967C3.36032 9.82902 3.55109 9.75 3.75 9.75H6C6.19891 9.75 6.38968 9.82902 6.53033 9.96967C6.67098 10.1103 6.75 10.3011 6.75 10.5C6.75 10.6989 6.67098 10.8897 6.53033 11.0303C6.38968 11.171 6.19891 11.25 6 11.25H3.75C3.55109 11.25 3.36032 11.171 3.21967 11.0303C3.07902 10.8897 3 10.6989 3 10.5ZM17.25 10.5C17.25 10.3011 17.329 10.1103 17.4697 9.96967C17.6103 9.82902 17.8011 9.75 18 9.75H20.25C20.4489 9.75 20.6397 9.82902 20.7803 9.96967C20.921 10.1103 21 10.3011 21 10.5C21 10.6989 20.921 10.8897 20.7803 11.0303C20.6397 11.171 20.4489 11.25 20.25 11.25H18C17.8011 11.25 17.6103 11.171 17.4697 11.0303C17.329 10.8897 17.25 10.6989 17.25 10.5ZM8.288 14.212C8.3577 14.2817 8.41298 14.3644 8.4507 14.4554C8.48842 14.5464 8.50784 14.644 8.50784 14.7425C8.50784 14.841 8.48842 14.9386 8.4507 15.0296C8.41298 15.1206 8.3577 15.2033 8.288 15.273L6.697 16.864C6.62785 16.9357 6.54512 16.9928 6.45363 17.0322C6.36215 17.0715 6.26374 17.0923 6.16416 17.0932C6.06458 17.0941 5.96581 17.0752 5.87362 17.0375C5.78143 16.9998 5.69766 16.9442 5.62721 16.8738C5.55676 16.8034 5.50103 16.7197 5.46328 16.6275C5.42552 16.5354 5.4065 16.4366 5.40732 16.3371C5.40813 16.2375 5.42878 16.139 5.46804 16.0475C5.5073 15.956 5.5644 15.8732 5.636 15.804L7.227 14.212C7.36763 14.0715 7.55825 13.9927 7.757 13.9927C7.95575 13.9927 8.14637 14.0715 8.287 14.212H8.288Z" fill="#3B6875"/>
</svg>
