<svg width="27" height="35" viewBox="0 0 27 35" fill="none" xmlns="http://www.w3.org/2000/svg">
<path fill-rule="evenodd" clip-rule="evenodd" d="M13.3 0C20.6454 0 26.6 3.401 26.6 7.6C26.6 11.799 20.6454 15.2 13.3 15.2C5.9546 15.2 0 11.799 0 7.6C0 3.401 5.9546 0 13.3 0ZM24.1186 15.447C25.0002 14.9454 25.8476 14.3393 26.6 13.6382V17.1C26.6 21.299 20.6454 24.7 13.3 24.7C5.9546 24.7 0 21.299 0 17.1V13.6382C0.7524 14.3412 1.5998 14.9454 2.4814 15.4489C5.3922 17.1114 9.2226 18.05 13.3 18.05C17.3774 18.05 21.2078 17.1114 24.1186 15.447ZM0 23.1401V26.6C0 30.799 5.9546 34.2 13.3 34.2C20.6454 34.2 26.6 30.799 26.6 26.6V23.1382C25.8476 23.8412 25.0002 24.4454 24.1186 24.9489C21.2078 26.6114 17.3774 27.55 13.3 27.55C9.2226 27.55 5.3922 26.6114 2.4814 24.947C1.58739 24.4424 0.754722 23.836 0 23.1401Z" fill="#E15A85"/>
</svg>
