<svg width="44" height="44" viewBox="0 0 44 44" fill="none" xmlns="http://www.w3.org/2000/svg">
<path fill-rule="evenodd" clip-rule="evenodd" d="M9.67857 4C8.96817 4 8.28687 4.35558 7.78454 4.98852C7.28221 5.62145 7 6.4799 7 7.375V36.625C7 37.5201 7.28221 38.3786 7.78454 39.0115C8.28687 39.6444 8.96817 40 9.67857 40H29.3214C30.0318 40 30.7131 39.6444 31.2155 39.0115C31.7178 38.3786 32 37.5201 32 36.625V16.6473C31.9994 15.7524 31.7168 14.8946 31.2143 14.2623L23.8571 4.98775C23.6081 4.67413 23.3124 4.42547 22.987 4.25598C22.6616 4.08649 22.3128 3.99951 21.9607 4H9.67857ZM13.6964 23.125C13.3412 23.125 13.0006 23.3028 12.7494 23.6193C12.4982 23.9357 12.3571 24.3649 12.3571 24.8125C12.3571 25.2601 12.4982 25.6893 12.7494 26.0057C13.0006 26.3222 13.3412 26.5 13.6964 26.5H25.3036C25.6588 26.5 25.9994 26.3222 26.2506 26.0057C26.5018 25.6893 26.6429 25.2601 26.6429 24.8125C26.6429 24.3649 26.5018 23.9357 26.2506 23.6193C25.9994 23.3028 25.6588 23.125 25.3036 23.125H13.6964ZM13.6964 29.875C13.3412 29.875 13.0006 30.0528 12.7494 30.3693C12.4982 30.6857 12.3571 31.1149 12.3571 31.5625C12.3571 32.0101 12.4982 32.4393 12.7494 32.7557C13.0006 33.0722 13.3412 33.25 13.6964 33.25H25.3036C25.6588 33.25 25.9994 33.0722 26.2506 32.7557C26.5018 32.4393 26.6429 32.0101 26.6429 31.5625C26.6429 31.1149 26.5018 30.6857 26.2506 30.3693C25.9994 30.0528 25.6588 29.875 25.3036 29.875H13.6964Z" fill="#E15A85"/>
</svg>
