<svg width="19" height="18" viewBox="0 0 19 18" fill="none" xmlns="http://www.w3.org/2000/svg">
<path fill-rule="evenodd" clip-rule="evenodd" d="M0.5 9C0.5 4.02923 4.52923 0 9.5 0C14.4708 0 18.5 4.02923 18.5 9C18.5 13.9708 14.4708 18 9.5 18C4.52923 18 0.5 13.9708 0.5 9ZM8.53631 7.66892C9.59415 7.14 10.7858 8.09631 10.4988 9.24369L9.84431 11.8615L9.88308 11.8431C10.0457 11.7716 10.2297 11.7653 10.3968 11.8257C10.5639 11.886 10.7014 12.0083 10.7809 12.1672C10.8604 12.3262 10.8757 12.5096 10.8237 12.6795C10.7717 12.8494 10.6563 12.9928 10.5015 13.08L10.4646 13.1003C9.40585 13.6292 8.21415 12.6729 8.50123 11.5255L9.15662 8.90769L9.11785 8.92615C9.03619 8.97154 8.94619 8.99992 8.85327 9.0096C8.76035 9.01928 8.66644 9.01005 8.57718 8.98248C8.48792 8.9549 8.40517 8.90954 8.3339 8.84914C8.26264 8.78873 8.20433 8.71453 8.16251 8.631C8.12068 8.54747 8.09619 8.45633 8.09051 8.36308C8.08483 8.26983 8.09809 8.1764 8.12948 8.08841C8.16087 8.00042 8.20974 7.91969 8.27315 7.85109C8.33657 7.78249 8.41321 7.72743 8.49846 7.68923L8.53631 7.66892ZM9.5 6.23077C9.68361 6.23077 9.8597 6.15783 9.98954 6.028C10.1194 5.89816 10.1923 5.72207 10.1923 5.53846C10.1923 5.35485 10.1194 5.17876 9.98954 5.04893C9.8597 4.91909 9.68361 4.84615 9.5 4.84615C9.31639 4.84615 9.1403 4.91909 9.01046 5.04893C8.88063 5.17876 8.80769 5.35485 8.80769 5.53846C8.80769 5.72207 8.88063 5.89816 9.01046 6.028C9.1403 6.15783 9.31639 6.23077 9.5 6.23077Z" fill="#3B6875"/>
</svg>
