<svg width="955" height="465" viewBox="0 0 955 465" fill="none" xmlns="http://www.w3.org/2000/svg">
<mask id="mask0_2455_1524" style="mask-type:alpha" maskUnits="userSpaceOnUse" x="57" y="46" width="833" height="365">
<rect x="57.5" y="46.5" width="52" height="52" stroke="black"/>
<rect x="109.5" y="46.5" width="52" height="52" stroke="black"/>
<rect x="161.5" y="46.5" width="52" height="52" stroke="black"/>
<rect x="213.5" y="46.5" width="52" height="52" stroke="black"/>
<rect x="265.5" y="46.5" width="52" height="52" stroke="black"/>
<rect x="317.5" y="46.5" width="52" height="52" stroke="black"/>
<rect x="369.5" y="46.5" width="52" height="52" stroke="black"/>
<rect x="421.5" y="46.5" width="52" height="52" stroke="black"/>
<rect x="473.5" y="46.5" width="52" height="52" stroke="black"/>
<rect x="525.5" y="46.5" width="52" height="52" stroke="black"/>
<rect x="577.5" y="46.5" width="52" height="52" stroke="black"/>
<rect x="629.5" y="46.5" width="52" height="52" stroke="black"/>
<rect x="681.5" y="46.5" width="52" height="52" stroke="black"/>
<rect x="733.5" y="46.5" width="52" height="52" stroke="black"/>
<rect x="785.5" y="46.5" width="52" height="52" stroke="black"/>
<rect x="57.5" y="98.5" width="52" height="52" stroke="black"/>
<rect x="109.5" y="98.5" width="52" height="52" stroke="black"/>
<rect x="161.5" y="98.5" width="52" height="52" stroke="black"/>
<rect x="213.5" y="98.5" width="52" height="52" stroke="black"/>
<rect x="265.5" y="98.5" width="52" height="52" stroke="black"/>
<rect x="317.5" y="98.5" width="52" height="52" stroke="black"/>
<rect x="369.5" y="98.5" width="52" height="52" stroke="black"/>
<rect x="421.5" y="98.5" width="52" height="52" stroke="black"/>
<rect x="473.5" y="98.5" width="52" height="52" stroke="black"/>
<rect x="525.5" y="98.5" width="52" height="52" stroke="black"/>
<rect x="577.5" y="98.5" width="52" height="52" stroke="black"/>
<rect x="629.5" y="98.5" width="52" height="52" stroke="black"/>
<rect x="681.5" y="98.5" width="52" height="52" stroke="black"/>
<rect x="733.5" y="98.5" width="52" height="52" stroke="black"/>
<rect x="785.5" y="98.5" width="52" height="52" stroke="black"/>
<rect x="837.5" y="98.5" width="52" height="52" stroke="black"/>
<rect x="57.5" y="150.5" width="52" height="52" stroke="black"/>
<rect x="109.5" y="150.5" width="52" height="52" stroke="black"/>
<rect x="161.5" y="150.5" width="52" height="52" stroke="black"/>
<rect x="213.5" y="150.5" width="52" height="52" stroke="black"/>
<rect x="265.5" y="150.5" width="52" height="52" stroke="black"/>
<rect x="317.5" y="150.5" width="52" height="52" stroke="black"/>
<rect x="369.5" y="150.5" width="52" height="52" stroke="black"/>
<rect x="421.5" y="150.5" width="52" height="52" stroke="black"/>
<rect x="473.5" y="150.5" width="52" height="52" stroke="black"/>
<rect x="525.5" y="150.5" width="52" height="52" stroke="black"/>
<rect x="577.5" y="150.5" width="52" height="52" stroke="black"/>
<rect x="629.5" y="150.5" width="52" height="52" stroke="black"/>
<rect x="681.5" y="150.5" width="52" height="52" stroke="black"/>
<rect x="733.5" y="150.5" width="52" height="52" stroke="black"/>
<rect x="785.5" y="150.5" width="52" height="52" stroke="black"/>
<rect x="837.5" y="150.5" width="52" height="52" stroke="black"/>
<rect x="57.5" y="202.5" width="52" height="52" stroke="black"/>
<rect x="109.5" y="202.5" width="52" height="52" stroke="black"/>
<rect x="161.5" y="202.5" width="52" height="52" stroke="black"/>
<rect x="213.5" y="202.5" width="52" height="52" stroke="black"/>
<rect x="265.5" y="202.5" width="52" height="52" stroke="black"/>
<rect x="317.5" y="202.5" width="52" height="52" stroke="black"/>
<rect x="369.5" y="202.5" width="52" height="52" stroke="black"/>
<rect x="421.5" y="202.5" width="52" height="52" stroke="black"/>
<rect x="473.5" y="202.5" width="52" height="52" stroke="black"/>
<rect x="525.5" y="202.5" width="52" height="52" stroke="black"/>
<rect x="577.5" y="202.5" width="52" height="52" stroke="black"/>
<rect x="629.5" y="202.5" width="52" height="52" stroke="black"/>
<rect x="681.5" y="202.5" width="52" height="52" stroke="black"/>
<rect x="733.5" y="202.5" width="52" height="52" stroke="black"/>
<rect x="785.5" y="202.5" width="52" height="52" stroke="black"/>
<rect x="837.5" y="202.5" width="52" height="52" stroke="black"/>
<rect x="57.5" y="254.5" width="52" height="52" stroke="black"/>
<rect x="109.5" y="254.5" width="52" height="52" stroke="black"/>
<rect x="161.5" y="254.5" width="52" height="52" stroke="black"/>
<rect x="213.5" y="254.5" width="52" height="52" stroke="black"/>
<rect x="265.5" y="254.5" width="52" height="52" stroke="black"/>
<rect x="317.5" y="254.5" width="52" height="52" stroke="black"/>
<rect x="369.5" y="254.5" width="52" height="52" stroke="black"/>
<rect x="421.5" y="254.5" width="52" height="52" stroke="black"/>
<rect x="473.5" y="254.5" width="52" height="52" stroke="black"/>
<rect x="525.5" y="254.5" width="52" height="52" stroke="black"/>
<rect x="577.5" y="254.5" width="52" height="52" stroke="black"/>
<rect x="629.5" y="254.5" width="52" height="52" stroke="black"/>
<rect x="681.5" y="254.5" width="52" height="52" stroke="black"/>
<rect x="733.5" y="254.5" width="52" height="52" stroke="black"/>
<rect x="785.5" y="254.5" width="52" height="52" stroke="black"/>
<rect x="837.5" y="254.5" width="52" height="52" stroke="black"/>
<rect x="57.5" y="306.5" width="52" height="52" stroke="black"/>
<rect x="109.5" y="306.5" width="52" height="52" stroke="black"/>
<rect x="161.5" y="306.5" width="52" height="52" stroke="black"/>
<rect x="213.5" y="306.5" width="52" height="52" stroke="black"/>
<rect x="265.5" y="306.5" width="52" height="52" stroke="black"/>
<rect x="317.5" y="306.5" width="52" height="52" stroke="black"/>
<rect x="369.5" y="306.5" width="52" height="52" stroke="black"/>
<rect x="421.5" y="306.5" width="52" height="52" stroke="black"/>
<rect x="473.5" y="306.5" width="52" height="52" stroke="black"/>
<rect x="525.5" y="306.5" width="52" height="52" stroke="black"/>
<rect x="577.5" y="306.5" width="52" height="52" stroke="black"/>
<rect x="629.5" y="306.5" width="52" height="52" stroke="black"/>
<rect x="681.5" y="306.5" width="52" height="52" stroke="black"/>
<rect x="733.5" y="306.5" width="52" height="52" stroke="black"/>
<rect x="785.5" y="306.5" width="52" height="52" stroke="black"/>
<rect x="837.5" y="306.5" width="52" height="52" stroke="black"/>
<rect x="57.5" y="358.5" width="52" height="52" stroke="black"/>
<rect x="109.5" y="358.5" width="52" height="52" stroke="black"/>
<rect x="161.5" y="358.5" width="52" height="52" stroke="black"/>
<rect x="213.5" y="358.5" width="52" height="52" stroke="black"/>
<rect x="265.5" y="358.5" width="52" height="52" stroke="black"/>
<rect x="317.5" y="358.5" width="52" height="52" stroke="black"/>
<rect x="369.5" y="358.5" width="52" height="52" stroke="black"/>
<rect x="421.5" y="358.5" width="52" height="52" stroke="black"/>
<rect x="473.5" y="358.5" width="52" height="52" stroke="black"/>
<rect x="525.5" y="358.5" width="52" height="52" stroke="black"/>
<rect x="577.5" y="358.5" width="52" height="52" stroke="black"/>
<rect x="629.5" y="358.5" width="52" height="52" stroke="black"/>
<rect x="681.5" y="358.5" width="52" height="52" stroke="black"/>
<rect x="733.5" y="358.5" width="52" height="52" stroke="black"/>
<rect x="785.5" y="358.5" width="52" height="52" stroke="black"/>
<rect x="837.5" y="358.5" width="52" height="52" stroke="black"/>
</mask>
<g mask="url(#mask0_2455_1524)">
<rect x="-65" y="-18" width="1079" height="484" fill="url(#paint0_radial_2455_1524)"/>
</g>
<g filter="url(#filter0_d_2455_1524)">
<rect x="46.5" y="46.5" width="854" height="364" rx="20.5" stroke="#3B6875" shape-rendering="crispEdges"/>
</g>
<path d="M77 256.184H148.94C149.691 256.184 150.379 255.764 150.721 255.095L172.171 213.18C172.963 211.634 175.213 211.762 175.824 213.388L200.581 279.303C201.305 281.23 204.117 280.938 204.43 278.903L232.105 98.743C232.455 96.4593 235.757 96.4908 236.064 98.7809L272.721 372.142C273.031 374.456 276.379 374.453 276.686 372.139L294.752 236.024C295.032 233.911 297.983 233.645 298.638 235.673L310.691 273.036C311.339 275.047 314.256 274.81 314.572 272.721L334.442 141.23C334.773 139.042 337.885 138.931 338.371 141.09L364.519 257.315C364.984 259.381 367.921 259.403 368.415 257.344L384.215 191.569C384.688 189.6 387.452 189.5 388.065 191.431L403.596 240.318C403.86 241.148 404.631 241.712 405.502 241.712H473" stroke="#EA384E" stroke-opacity="0.8" stroke-width="3" stroke-linecap="round"/>
<path d="M474 242.184H545.94C546.691 242.184 547.379 241.764 547.721 241.095L569.171 199.18C569.963 197.634 572.213 197.762 572.824 199.388L597.581 265.303C598.305 267.23 601.117 266.938 601.43 264.903L629.105 84.743C629.455 82.4593 632.757 82.4908 633.064 84.7809L669.721 358.142C670.031 360.456 673.379 360.453 673.686 358.139L691.752 222.024C692.032 219.911 694.983 219.645 695.638 221.673L707.691 259.036C708.339 261.047 711.256 260.81 711.572 258.721L731.442 127.23C731.773 125.042 734.885 124.931 735.371 127.09L761.519 243.315C761.984 245.381 764.921 245.403 765.415 243.344L781.215 177.569C781.688 175.6 784.452 175.5 785.065 177.431L800.596 226.318C800.86 227.148 801.631 227.712 802.502 227.712H870" stroke="#EA384E" stroke-opacity="0.8" stroke-width="3" stroke-linecap="round"/>
<defs>
<filter id="filter0_d_2455_1524" x="0" y="0" width="955" height="465" filterUnits="userSpaceOnUse" color-interpolation-filters="sRGB">
<feFlood flood-opacity="0" result="BackgroundImageFix"/>
<feColorMatrix in="SourceAlpha" type="matrix" values="0 0 0 0 0 0 0 0 0 0 0 0 0 0 0 0 0 0 127 0" result="hardAlpha"/>
<feMorphology radius="10" operator="dilate" in="SourceAlpha" result="effect1_dropShadow_2455_1524"/>
<feOffset dx="4" dy="4"/>
<feGaussianBlur stdDeviation="20"/>
<feComposite in2="hardAlpha" operator="out"/>
<feColorMatrix type="matrix" values="0 0 0 0 0.832145 0 0 0 0 0.832145 0 0 0 0 0.832145 0 0 0 0.25 0"/>
<feBlend mode="normal" in2="BackgroundImageFix" result="effect1_dropShadow_2455_1524"/>
<feBlend mode="normal" in="SourceGraphic" in2="effect1_dropShadow_2455_1524" result="shape"/>
</filter>
<radialGradient id="paint0_radial_2455_1524" cx="0" cy="0" r="1" gradientUnits="userSpaceOnUse" gradientTransform="translate(474.5 224) rotate(90) scale(242 539.5)">
<stop stop-color="#E6B5B5"/>
<stop offset="1" stop-color="#806565" stop-opacity="0"/>
</radialGradient>
</defs>
</svg>
