<svg width="78" height="78" viewBox="0 0 78 78" fill="none" xmlns="http://www.w3.org/2000/svg">
<path d="M19.5 9.75C16.9141 9.75 14.4342 10.7772 12.6057 12.6057C10.7772 14.4342 9.75 16.9141 9.75 19.5V26.8125C9.75 29.3984 10.7772 31.8783 12.6057 33.7068C14.4342 35.5353 16.9141 36.5625 19.5 36.5625H26.8125C29.3984 36.5625 31.8783 35.5353 33.7068 33.7068C35.5353 31.8783 36.5625 29.3984 36.5625 26.8125V19.5C36.5625 16.9141 35.5353 14.4342 33.7068 12.6057C31.8783 10.7772 29.3984 9.75 26.8125 9.75H19.5ZM51.1875 9.75C48.6016 9.75 46.1217 10.7772 44.2932 12.6057C42.4647 14.4342 41.4375 16.9141 41.4375 19.5V26.8125C41.4375 29.3984 42.4647 31.8783 44.2932 33.7068C46.1217 35.5353 48.6016 36.5625 51.1875 36.5625H58.5C61.0859 36.5625 63.5658 35.5353 65.3943 33.7068C67.2228 31.8783 68.25 29.3984 68.25 26.8125V19.5C68.25 16.9141 67.2228 14.4342 65.3943 12.6057C63.5658 10.7772 61.0859 9.75 58.5 9.75H51.1875ZM19.5 41.4375C16.9141 41.4375 14.4342 42.4647 12.6057 44.2932C10.7772 46.1217 9.75 48.6016 9.75 51.1875V58.5C9.75 61.0859 10.7772 63.5658 12.6057 65.3943C14.4342 67.2228 16.9141 68.25 19.5 68.25H26.8125C29.3984 68.25 31.8783 67.2228 33.7068 65.3943C35.5353 63.5658 36.5625 61.0859 36.5625 58.5V51.1875C36.5625 48.6016 35.5353 46.1217 33.7068 44.2932C31.8783 42.4647 29.3984 41.4375 26.8125 41.4375H19.5ZM57.2812 43.875C57.2812 43.2285 57.0244 42.6085 56.5673 42.1514C56.1102 41.6943 55.4902 41.4375 54.8438 41.4375C54.1973 41.4375 53.5773 41.6943 53.1202 42.1514C52.6631 42.6085 52.4062 43.2285 52.4062 43.875V52.4062H43.875C43.2285 52.4062 42.6085 52.6631 42.1514 53.1202C41.6943 53.5773 41.4375 54.1973 41.4375 54.8438C41.4375 55.4902 41.6943 56.1102 42.1514 56.5673C42.6085 57.0244 43.2285 57.2812 43.875 57.2812H52.4062V65.8125C52.4062 66.459 52.6631 67.079 53.1202 67.5361C53.5773 67.9932 54.1973 68.25 54.8438 68.25C55.4902 68.25 56.1102 67.9932 56.5673 67.5361C57.0244 67.079 57.2812 66.459 57.2812 65.8125V57.2812H65.8125C66.459 57.2812 67.079 57.0244 67.5361 56.5673C67.9932 56.1102 68.25 55.4902 68.25 54.8438C68.25 54.1973 67.9932 53.5773 67.5361 53.1202C67.079 52.6631 66.459 52.4062 65.8125 52.4062H57.2812V43.875Z" fill="#3B6875"/>
</svg>
