<svg width="47" height="35" viewBox="0 0 47 35" fill="none" xmlns="http://www.w3.org/2000/svg">
<path d="M40.8114 34.0696L32.7014 34.0696C31.1984 34.067 29.7578 33.4687 28.695 32.406C27.6323 31.3432 27.0341 29.9026 27.0314 28.3996C27.0314 16.7296 24.0314 3.90961 38.3514 0.249606C44.8314 -1.41039 46.5214 5.72961 39.6314 6.24961C35.4314 6.54961 34.6314 9.24961 34.4714 13.3696L41.0214 13.3696C42.5244 13.3723 43.965 13.9705 45.0278 15.0332C46.0905 16.096 46.6888 17.5366 46.6914 19.0396L46.6914 28.2596C46.6782 29.8086 46.0522 31.2893 44.9504 32.378C43.8485 33.4668 42.3604 34.075 40.8114 34.0696ZM14.0414 34.0696L5.94141 34.0696C4.43752 34.067 2.99583 33.4691 1.93148 32.4066C0.867132 31.3441 0.26669 29.9035 0.261406 28.3996C0.261407 16.7296 -2.73859 3.9096 11.5914 0.249604C18.0714 -1.4104 19.7614 5.72961 12.8614 6.24961C8.66141 6.54961 7.86141 9.24961 7.71141 13.3696L14.2114 13.3696C15.7144 13.3723 17.155 13.9705 18.2178 15.0332C19.2805 16.096 19.8788 17.5366 19.8814 19.0396L19.8814 28.2596C19.8788 29.8077 19.2626 31.2916 18.168 32.3862C17.0734 33.4808 15.5895 34.097 14.0414 34.0996L14.0414 34.0696Z" fill="#E15A85"/>
</svg>
