<svg width="955" height="465" viewBox="0 0 955 465" fill="none" xmlns="http://www.w3.org/2000/svg">
<mask id="mask0_2229_3978" style="mask-type:alpha" maskUnits="userSpaceOnUse" x="57" y="46" width="833" height="365">
<rect x="57.5" y="46.5" width="52" height="52" stroke="black"/>
<rect x="109.5" y="46.5" width="52" height="52" stroke="black"/>
<rect x="161.5" y="46.5" width="52" height="52" stroke="black"/>
<rect x="213.5" y="46.5" width="52" height="52" stroke="black"/>
<rect x="265.5" y="46.5" width="52" height="52" stroke="black"/>
<rect x="317.5" y="46.5" width="52" height="52" stroke="black"/>
<rect x="369.5" y="46.5" width="52" height="52" stroke="black"/>
<rect x="421.5" y="46.5" width="52" height="52" stroke="black"/>
<rect x="473.5" y="46.5" width="52" height="52" stroke="black"/>
<rect x="525.5" y="46.5" width="52" height="52" stroke="black"/>
<rect x="577.5" y="46.5" width="52" height="52" stroke="black"/>
<rect x="629.5" y="46.5" width="52" height="52" stroke="black"/>
<rect x="681.5" y="46.5" width="52" height="52" stroke="black"/>
<rect x="733.5" y="46.5" width="52" height="52" stroke="black"/>
<rect x="785.5" y="46.5" width="52" height="52" stroke="black"/>
<rect x="57.5" y="98.5" width="52" height="52" stroke="black"/>
<rect x="109.5" y="98.5" width="52" height="52" stroke="black"/>
<rect x="161.5" y="98.5" width="52" height="52" stroke="black"/>
<rect x="213.5" y="98.5" width="52" height="52" stroke="black"/>
<rect x="265.5" y="98.5" width="52" height="52" stroke="black"/>
<rect x="317.5" y="98.5" width="52" height="52" stroke="black"/>
<rect x="369.5" y="98.5" width="52" height="52" stroke="black"/>
<rect x="421.5" y="98.5" width="52" height="52" stroke="black"/>
<rect x="473.5" y="98.5" width="52" height="52" stroke="black"/>
<rect x="525.5" y="98.5" width="52" height="52" stroke="black"/>
<rect x="577.5" y="98.5" width="52" height="52" stroke="black"/>
<rect x="629.5" y="98.5" width="52" height="52" stroke="black"/>
<rect x="681.5" y="98.5" width="52" height="52" stroke="black"/>
<rect x="733.5" y="98.5" width="52" height="52" stroke="black"/>
<rect x="785.5" y="98.5" width="52" height="52" stroke="black"/>
<rect x="837.5" y="98.5" width="52" height="52" stroke="black"/>
<rect x="57.5" y="150.5" width="52" height="52" stroke="black"/>
<rect x="109.5" y="150.5" width="52" height="52" stroke="black"/>
<rect x="161.5" y="150.5" width="52" height="52" stroke="black"/>
<rect x="213.5" y="150.5" width="52" height="52" stroke="black"/>
<rect x="265.5" y="150.5" width="52" height="52" stroke="black"/>
<rect x="317.5" y="150.5" width="52" height="52" stroke="black"/>
<rect x="369.5" y="150.5" width="52" height="52" stroke="black"/>
<rect x="421.5" y="150.5" width="52" height="52" stroke="black"/>
<rect x="473.5" y="150.5" width="52" height="52" stroke="black"/>
<rect x="525.5" y="150.5" width="52" height="52" stroke="black"/>
<rect x="577.5" y="150.5" width="52" height="52" stroke="black"/>
<rect x="629.5" y="150.5" width="52" height="52" stroke="black"/>
<rect x="681.5" y="150.5" width="52" height="52" stroke="black"/>
<rect x="733.5" y="150.5" width="52" height="52" stroke="black"/>
<rect x="785.5" y="150.5" width="52" height="52" stroke="black"/>
<rect x="837.5" y="150.5" width="52" height="52" stroke="black"/>
<rect x="57.5" y="202.5" width="52" height="52" stroke="black"/>
<rect x="109.5" y="202.5" width="52" height="52" stroke="black"/>
<rect x="161.5" y="202.5" width="52" height="52" stroke="black"/>
<rect x="213.5" y="202.5" width="52" height="52" stroke="black"/>
<rect x="265.5" y="202.5" width="52" height="52" stroke="black"/>
<rect x="317.5" y="202.5" width="52" height="52" stroke="black"/>
<rect x="369.5" y="202.5" width="52" height="52" stroke="black"/>
<rect x="421.5" y="202.5" width="52" height="52" stroke="black"/>
<rect x="473.5" y="202.5" width="52" height="52" stroke="black"/>
<rect x="525.5" y="202.5" width="52" height="52" stroke="black"/>
<rect x="577.5" y="202.5" width="52" height="52" stroke="black"/>
<rect x="629.5" y="202.5" width="52" height="52" stroke="black"/>
<rect x="681.5" y="202.5" width="52" height="52" stroke="black"/>
<rect x="733.5" y="202.5" width="52" height="52" stroke="black"/>
<rect x="785.5" y="202.5" width="52" height="52" stroke="black"/>
<rect x="837.5" y="202.5" width="52" height="52" stroke="black"/>
<rect x="57.5" y="254.5" width="52" height="52" stroke="black"/>
<rect x="109.5" y="254.5" width="52" height="52" stroke="black"/>
<rect x="161.5" y="254.5" width="52" height="52" stroke="black"/>
<rect x="213.5" y="254.5" width="52" height="52" stroke="black"/>
<rect x="265.5" y="254.5" width="52" height="52" stroke="black"/>
<rect x="317.5" y="254.5" width="52" height="52" stroke="black"/>
<rect x="369.5" y="254.5" width="52" height="52" stroke="black"/>
<rect x="421.5" y="254.5" width="52" height="52" stroke="black"/>
<rect x="473.5" y="254.5" width="52" height="52" stroke="black"/>
<rect x="525.5" y="254.5" width="52" height="52" stroke="black"/>
<rect x="577.5" y="254.5" width="52" height="52" stroke="black"/>
<rect x="629.5" y="254.5" width="52" height="52" stroke="black"/>
<rect x="681.5" y="254.5" width="52" height="52" stroke="black"/>
<rect x="733.5" y="254.5" width="52" height="52" stroke="black"/>
<rect x="785.5" y="254.5" width="52" height="52" stroke="black"/>
<rect x="837.5" y="254.5" width="52" height="52" stroke="black"/>
<rect x="57.5" y="306.5" width="52" height="52" stroke="black"/>
<rect x="109.5" y="306.5" width="52" height="52" stroke="black"/>
<rect x="161.5" y="306.5" width="52" height="52" stroke="black"/>
<rect x="213.5" y="306.5" width="52" height="52" stroke="black"/>
<rect x="265.5" y="306.5" width="52" height="52" stroke="black"/>
<rect x="317.5" y="306.5" width="52" height="52" stroke="black"/>
<rect x="369.5" y="306.5" width="52" height="52" stroke="black"/>
<rect x="421.5" y="306.5" width="52" height="52" stroke="black"/>
<rect x="473.5" y="306.5" width="52" height="52" stroke="black"/>
<rect x="525.5" y="306.5" width="52" height="52" stroke="black"/>
<rect x="577.5" y="306.5" width="52" height="52" stroke="black"/>
<rect x="629.5" y="306.5" width="52" height="52" stroke="black"/>
<rect x="681.5" y="306.5" width="52" height="52" stroke="black"/>
<rect x="733.5" y="306.5" width="52" height="52" stroke="black"/>
<rect x="785.5" y="306.5" width="52" height="52" stroke="black"/>
<rect x="837.5" y="306.5" width="52" height="52" stroke="black"/>
<rect x="57.5" y="358.5" width="52" height="52" stroke="black"/>
<rect x="109.5" y="358.5" width="52" height="52" stroke="black"/>
<rect x="161.5" y="358.5" width="52" height="52" stroke="black"/>
<rect x="213.5" y="358.5" width="52" height="52" stroke="black"/>
<rect x="265.5" y="358.5" width="52" height="52" stroke="black"/>
<rect x="317.5" y="358.5" width="52" height="52" stroke="black"/>
<rect x="369.5" y="358.5" width="52" height="52" stroke="black"/>
<rect x="421.5" y="358.5" width="52" height="52" stroke="black"/>
<rect x="473.5" y="358.5" width="52" height="52" stroke="black"/>
<rect x="525.5" y="358.5" width="52" height="52" stroke="black"/>
<rect x="577.5" y="358.5" width="52" height="52" stroke="black"/>
<rect x="629.5" y="358.5" width="52" height="52" stroke="black"/>
<rect x="681.5" y="358.5" width="52" height="52" stroke="black"/>
<rect x="733.5" y="358.5" width="52" height="52" stroke="black"/>
<rect x="785.5" y="358.5" width="52" height="52" stroke="black"/>
<rect x="837.5" y="358.5" width="52" height="52" stroke="black"/>
</mask>
<g mask="url(#mask0_2229_3978)">
<rect x="-65" y="-18" width="1079" height="484" fill="url(#paint0_radial_2229_3978)"/>
</g>
<g filter="url(#filter0_d_2229_3978)">
<rect x="46.5" y="46.5" width="854" height="364" rx="20.5" stroke="#3B6875" shape-rendering="crispEdges"/>
</g>
<defs>
<filter id="filter0_d_2229_3978" x="0" y="0" width="955" height="465" filterUnits="userSpaceOnUse" color-interpolation-filters="sRGB">
<feFlood flood-opacity="0" result="BackgroundImageFix"/>
<feColorMatrix in="SourceAlpha" type="matrix" values="0 0 0 0 0 0 0 0 0 0 0 0 0 0 0 0 0 0 127 0" result="hardAlpha"/>
<feMorphology radius="10" operator="dilate" in="SourceAlpha" result="effect1_dropShadow_2229_3978"/>
<feOffset dx="4" dy="4"/>
<feGaussianBlur stdDeviation="20"/>
<feComposite in2="hardAlpha" operator="out"/>
<feColorMatrix type="matrix" values="0 0 0 0 0.832145 0 0 0 0 0.832145 0 0 0 0 0.832145 0 0 0 0.25 0"/>
<feBlend mode="normal" in2="BackgroundImageFix" result="effect1_dropShadow_2229_3978"/>
<feBlend mode="normal" in="SourceGraphic" in2="effect1_dropShadow_2229_3978" result="shape"/>
</filter>
<radialGradient id="paint0_radial_2229_3978" cx="0" cy="0" r="1" gradientUnits="userSpaceOnUse" gradientTransform="translate(474.5 224) rotate(90) scale(242 539.5)">
<stop stop-color="#E6B5B5"/>
<stop offset="1" stop-color="#806565" stop-opacity="0"/>
</radialGradient>
</defs>
</svg>
