<svg width="48" height="46" viewBox="0 0 48 46" fill="none" xmlns="http://www.w3.org/2000/svg">
<path fill-rule="evenodd" clip-rule="evenodd" d="M6.74988 41.8717V30.0149H12.1295C14.4211 30.4022 16.6893 31.6379 18.9692 33.0672H23.1424C25.0359 33.1795 26.0235 35.0814 24.1887 36.3287C22.7247 37.3978 20.8001 37.3358 18.8091 37.1615C17.4427 37.0957 17.3842 38.9124 18.8091 38.9201C19.3049 38.9588 19.8436 38.8426 20.3121 38.8426C22.7755 38.8426 24.8211 38.3739 26.0665 36.4333L26.6833 34.9846L32.9296 31.9439C36.0527 30.929 38.2506 34.1518 35.959 36.3984C31.6233 39.5375 26.985 42.2428 22.1118 44.4748C18.6842 46.5432 15.2526 46.4735 11.8328 44.4748L6.75769 41.8717H6.74988ZM0 28.8838H5.13366V43.0648H0V28.8838Z" fill="#E15A85"/>
<path fill-rule="evenodd" clip-rule="evenodd" d="M27.1128 1.30194C27.141 0.933035 27.3117 0.589609 27.5888 0.344496C27.8609 0.104824 28.2164 -0.0181462 28.5784 0.00217H28.6747C29.023 0.0474751 29.3414 0.222396 29.5664 0.492051C29.7915 0.761706 29.9066 1.10628 29.8888 1.45705C29.8888 1.45705 29.8888 1.50519 29.8888 1.52659L29.6856 4.48984C29.6856 4.52194 29.6856 4.55403 29.6856 4.58078C29.6404 4.91943 29.4753 5.23066 29.2202 5.45798C28.9471 5.69522 28.5919 5.81616 28.2307 5.79496H28.1344C27.8049 5.75515 27.5009 5.59746 27.2786 5.35101C27.04 5.07836 26.9171 4.72332 26.9363 4.36147C26.9334 4.33838 26.9334 4.31503 26.9363 4.29194L27.1342 1.31798L27.1128 1.30194ZM11.6012 5.81636C11.3428 5.55502 11.1979 5.20234 11.1979 4.83484C11.1979 4.46735 11.3428 4.11467 11.6012 3.85333C11.8618 3.59366 12.2148 3.44786 12.5827 3.44786C12.9506 3.44786 13.3035 3.59366 13.5642 3.85333L15.7037 6.02496C15.9634 6.28561 16.1092 6.63855 16.1092 7.00647C16.1092 7.3744 15.9634 7.72733 15.7037 7.98798C15.4407 8.24525 15.0874 8.38927 14.7195 8.38915C14.5373 8.38825 14.3571 8.35141 14.1891 8.28073C14.0211 8.21006 13.8688 8.10694 13.7407 7.97729L11.6012 5.80566V5.81636ZM7.3221 20.9375C6.957 20.9277 6.61041 20.7747 6.35721 20.5115C6.104 20.2482 5.9645 19.896 5.96885 19.5308C5.97861 19.1713 6.12829 18.8298 6.38604 18.5791C6.64379 18.3283 6.98925 18.1881 7.34885 18.1882H10.387C10.57 18.1902 10.7508 18.2286 10.9189 18.3012C11.0869 18.3737 11.2388 18.4789 11.3658 18.6108C11.4961 18.7401 11.5987 18.8944 11.6677 19.0645C11.7366 19.2346 11.7704 19.4168 11.767 19.6003V19.6485C11.7472 19.9906 11.6003 20.313 11.3551 20.5524C11.0903 20.8095 10.7347 20.9517 10.3656 20.9482H10.3121L7.30606 20.9161L7.3221 20.9375ZM45.7642 18.3166H45.807C46.1551 18.3089 46.4933 18.4331 46.7537 18.6643C47.0288 18.9098 47.1959 19.2538 47.2191 19.6217C47.2191 19.6217 47.2191 19.6591 47.2191 19.6645C47.2268 20.0126 47.1026 20.3508 46.8714 20.6112C46.6259 20.8863 46.2819 21.0534 45.914 21.0766L42.8812 21.2638C42.5168 21.2794 42.1608 21.1511 41.8901 20.9067C41.6193 20.6624 41.4554 20.3214 41.4336 19.9573C41.4119 19.5932 41.534 19.2351 41.7738 18.9602C42.0135 18.6854 42.3517 18.5157 42.7154 18.4878C43.7316 18.4236 44.7479 18.354 45.7642 18.3005V18.3166ZM40.287 5.97147C40.3944 5.82449 40.5298 5.70021 40.6855 5.6058C40.8411 5.51139 41.0139 5.4487 41.1939 5.42136C41.3739 5.39401 41.5575 5.40255 41.7342 5.44647C41.9108 5.4904 42.0771 5.56884 42.2233 5.67729C42.3675 5.78534 42.489 5.92082 42.5808 6.07594C42.6726 6.23106 42.7329 6.40278 42.7582 6.58124C42.8093 6.9456 42.7172 7.3156 42.5014 7.61357L40.7042 10.0633C40.4853 10.359 40.1586 10.5563 39.795 10.6124C39.4314 10.6685 39.0604 10.5788 38.7626 10.3629C38.4735 10.1403 38.2818 9.81439 38.2277 9.45357C38.2042 9.27213 38.2172 9.08784 38.2659 8.9115C38.3146 8.73515 38.398 8.57029 38.5112 8.42659L40.3137 5.97147H40.287Z" fill="#E15A85"/>
<path fill-rule="evenodd" clip-rule="evenodd" d="M27.0938 18.3635L26.314 23.6836L24.4398 20.0302H23.2074L22.7614 19.3781L21.9336 20.4539H15.8462C15.3659 20.4539 14.9766 20.0745 14.9766 19.6064C14.9766 19.1383 15.3659 18.7588 15.8462 18.7588H21.0639L22.8449 16.4443L24.1382 18.335H25.3411L26.2904 11.8584L28.0142 11.8731L29.0604 20.0302H29.6575L30.8264 17.7518L32.2944 19.1826H35.4127C35.893 19.1826 36.2823 19.5621 36.2823 20.0302C36.2823 20.4983 35.893 20.8777 35.4127 20.8777H31.574L31.3028 20.6134L30.7324 21.7253H30.1195L29.7566 25.6161L28.0276 25.6445L27.0938 18.3635Z" fill="#E15A85"/>
<path fill-rule="evenodd" clip-rule="evenodd" d="M27.0929 14.6608L26.0703 22.1549L24.7242 19.3361H23.4796L22.8341 18.3224L21.788 19.7827H16.0282C15.7926 19.7827 15.6016 19.5828 15.6016 19.3361C15.6016 19.0894 15.7926 18.8894 16.0282 18.8894H21.3613L22.8751 16.7762L23.9362 18.4427H25.2515L25.6119 19.1974L26.6987 11.2324L27.5444 11.2402L28.7607 21.4273L28.8647 20.2294H29.8439L30.844 18.1353L31.9909 19.3361H35.2274C35.463 19.3361 35.6541 19.536 35.6541 19.7827C35.6541 20.0294 35.463 20.2294 35.2274 20.2294H31.6375L31.0778 19.6435L30.3713 21.1228H29.6439L29.2526 25.6302L28.4043 25.6452L27.0929 14.6608Z" fill="#E15A85"/>
<path d="M36.9073 19.6929C36.9073 20.212 36.4864 20.6329 35.9673 20.6329C35.4482 20.6329 35.0273 20.212 35.0273 19.6929C35.0273 19.1738 35.4482 18.7529 35.9673 18.7529C36.4864 18.7529 36.9073 19.1738 36.9073 19.6929Z" fill="#E15A85"/>
</svg>
