<svg width="12" height="12" viewBox="0 0 12 12" fill="none" xmlns="http://www.w3.org/2000/svg">
<path fill-rule="evenodd" clip-rule="evenodd" d="M0 6C0 2.68615 2.68615 0 6 0C9.31385 0 12 2.68615 12 6C12 9.31385 9.31385 12 6 12C2.68615 12 0 9.31385 0 6ZM5.35754 5.11262C6.06277 4.76 6.85723 5.39754 6.66585 6.16246L6.22954 7.90769L6.25538 7.89538C6.36383 7.84771 6.48644 7.84356 6.59786 7.88379C6.70928 7.92401 6.80097 8.00554 6.85394 8.11149C6.90692 8.21744 6.91713 8.33971 6.88246 8.45298C6.84779 8.56625 6.7709 8.66185 6.66769 8.72L6.64308 8.73354C5.93723 9.08615 5.14277 8.44862 5.33415 7.68369L5.77108 5.93846L5.74523 5.95077C5.69079 5.98102 5.63079 5.99995 5.56885 6.0064C5.5069 6.01285 5.44429 6.0067 5.38479 5.98832C5.32528 5.96993 5.27011 5.9397 5.2226 5.89943C5.17509 5.85916 5.13622 5.80969 5.10834 5.754C5.08045 5.69831 5.06412 5.63755 5.06034 5.57539C5.05656 5.51322 5.06539 5.45093 5.08632 5.39227C5.10724 5.33361 5.13983 5.2798 5.1821 5.23406C5.22438 5.18833 5.27547 5.15162 5.33231 5.12615L5.35754 5.11262ZM6 4.15385C6.12241 4.15385 6.2398 4.10522 6.32636 4.01866C6.41291 3.93211 6.46154 3.81472 6.46154 3.69231C6.46154 3.5699 6.41291 3.45251 6.32636 3.36595C6.2398 3.2794 6.12241 3.23077 6 3.23077C5.87759 3.23077 5.7602 3.2794 5.67364 3.36595C5.58709 3.45251 5.53846 3.5699 5.53846 3.69231C5.53846 3.81472 5.58709 3.93211 5.67364 4.01866C5.7602 4.10522 5.87759 4.15385 6 4.15385Z" fill="#7B7434"/>
</svg>
