<svg width="50" height="34" viewBox="0 0 50 34" fill="none" xmlns="http://www.w3.org/2000/svg">
<g clip-path="url(#clip0_2432_819)">
<path fill-rule="evenodd" clip-rule="evenodd" d="M15.2768 0H48.9723C49.5216 0 49.9733 0.447953 49.9733 0.99276V6.81614H50.0018V27.7609V28.9232V29.1734H16.0784V27.7609H48.5776V7.06231H13.2708V1.98955C13.2708 0.895905 14.1741 0 15.2768 0ZM0.00582441 16.6993C-0.120315 14.3587 1.81653 13.7614 4.44105 13.9148L7.75322 17.5751L10.9962 13.9632L19.0284 13.9188C22.0639 14.2618 21.4251 17.4096 19.0284 17.5428H13.7713L12.5343 24.9118L11.5984 32.3938C11.3543 33.1848 10.866 33.7014 10.1621 33.9677L5.59258 34C4.67298 33.8628 4.12366 33.3301 3.9609 32.3938L3.24883 25.731C1.37708 25.9086 0.750453 24.593 0.555141 22.6882L0.00582441 16.6993ZM7.55384 3.94279C9.804 3.94279 11.6269 5.75074 11.6269 7.98243C11.6269 10.2141 9.804 12.0221 7.55384 12.0221C5.30368 12.0221 3.48076 10.2141 3.48076 7.98243C3.47669 5.75478 5.30368 3.94279 7.55384 3.94279ZM7.70846 15.8559L5.12871 13.0512L5.88961 12.4499C7.00859 12.9139 8.11943 12.9139 9.21806 12.4499L10.2597 13.0633L7.70846 15.8559ZM26.8735 1.80795C27.6914 1.80795 28.3546 2.46576 28.3546 3.27691C28.3546 4.08807 27.6914 4.74588 26.8735 4.74588C26.0556 4.74588 25.3924 4.08807 25.3924 3.27691C25.3924 2.46576 26.0556 1.80795 26.8735 1.80795ZM18.4466 1.80795C19.2645 1.80795 19.9277 2.46576 19.9277 3.27691C19.9277 4.08807 19.2645 4.74588 18.4466 4.74588C17.6287 4.74588 16.9655 4.08807 16.9655 3.27691C16.9655 2.46576 17.6287 1.80795 18.4466 1.80795ZM22.658 1.80795C23.4759 1.80795 24.1391 2.46576 24.1391 3.27691C24.1391 4.08807 23.4759 4.74588 22.658 4.74588C21.8401 4.74588 21.1769 4.08807 21.1769 3.27691C21.1769 2.46576 21.8401 1.80795 22.658 1.80795ZM44.3987 2.47383C44.2482 2.32451 44.2482 2.07834 44.3987 1.92902C44.5493 1.7797 44.7975 1.7797 44.948 1.92902L45.7618 2.73614L46.5756 1.92902C46.7262 1.7797 46.9744 1.7797 47.125 1.92902C47.2755 2.07834 47.2755 2.32451 47.125 2.47383L46.3112 3.28095L47.125 4.08807C47.2755 4.23739 47.2755 4.48356 47.125 4.63288C46.9744 4.7822 46.7262 4.7822 46.5756 4.63288L45.7618 3.82576L44.948 4.63288C44.7975 4.7822 44.5493 4.7822 44.3987 4.63288C44.2482 4.48356 44.2482 4.23739 44.3987 4.08807L45.2125 3.28095L44.3987 2.47383Z" fill="#E15A85"/>
</g>
<defs>
<clipPath id="clip0_2432_819">
<rect width="50" height="34" fill="white"/>
</clipPath>
</defs>
</svg>
