<svg width="32" height="31" viewBox="0 0 32 31" fill="none" xmlns="http://www.w3.org/2000/svg">
<path fill-rule="evenodd" clip-rule="evenodd" d="M23.9995 6.66534H2.66661C1.93025 6.66534 1.33331 7.26228 1.33331 7.99864V27.9982C1.33331 28.7346 1.93025 29.3315 2.66661 29.3315H23.9995C24.7359 29.3315 25.3328 28.7346 25.3328 27.9982V7.99864C25.3328 7.26228 24.7359 6.66534 23.9995 6.66534ZM2.66661 5.33203C1.19388 5.33203 0 6.52592 0 7.99864V27.9982C0 29.471 1.19388 30.6649 2.66661 30.6649H23.9995C25.4723 30.6649 26.6661 29.471 26.6661 27.9982V7.99864C26.6661 6.52591 25.4722 5.33203 23.9995 5.33203H2.66661Z" fill="#3B6875"/>
<path d="M32.0036 7.99984C32.0036 12.418 28.4219 15.9997 24.0037 15.9997C19.5856 15.9997 16.0039 12.418 16.0039 7.99984C16.0039 3.58165 19.5856 0 24.0037 0C28.4219 0 32.0036 3.58165 32.0036 7.99984Z" fill="#3B6875"/>
<path fill-rule="evenodd" clip-rule="evenodd" d="M4.84506 10.9512C4.9666 10.9512 5.06512 11.0497 5.06512 11.1712V25.2551C5.06512 25.3766 4.9666 25.4752 4.84506 25.4752C4.72352 25.4752 4.625 25.3766 4.625 25.2551V11.1712C4.625 11.0497 4.72352 10.9512 4.84506 10.9512Z" fill="#3B6875"/>
<path fill-rule="evenodd" clip-rule="evenodd" d="M9.2474 10.9512C9.36894 10.9512 9.46746 11.0497 9.46746 11.1712V25.2551C9.46746 25.3766 9.36894 25.4752 9.2474 25.4752C9.12587 25.4752 9.02734 25.3766 9.02734 25.2551V11.1712C9.02734 11.0497 9.12587 10.9512 9.2474 10.9512Z" fill="#3B6875"/>
<path fill-rule="evenodd" clip-rule="evenodd" d="M13.6537 10.9512C13.7752 10.9512 13.8737 11.0497 13.8737 11.1712V25.2551C13.8737 25.3766 13.7752 25.4752 13.6537 25.4752C13.5321 25.4752 13.4336 25.3766 13.4336 25.2551V11.1712C13.4336 11.0497 13.5321 10.9512 13.6537 10.9512Z" fill="#3B6875"/>
<path fill-rule="evenodd" clip-rule="evenodd" d="M17.1654 10.9512C17.2869 10.9512 17.3854 11.0497 17.3854 11.1712V25.2551C17.3854 25.3766 17.2869 25.4752 17.1654 25.4752C17.0438 25.4752 16.9453 25.3766 16.9453 25.2551V11.1712C16.9453 11.0497 17.0438 10.9512 17.1654 10.9512Z" fill="#3B6875"/>
<path fill-rule="evenodd" clip-rule="evenodd" d="M21.5716 10.9512C21.6932 10.9512 21.7917 11.0497 21.7917 11.1712V25.2551C21.7917 25.3766 21.6932 25.4752 21.5716 25.4752C21.4501 25.4752 21.3516 25.3766 21.3516 25.2551V11.1712C21.3516 11.0497 21.4501 10.9512 21.5716 10.9512Z" fill="#3B6875"/>
<path fill-rule="evenodd" clip-rule="evenodd" d="M13.5933 17.8018L12.804 23.327L10.9069 19.5327H9.65945L9.20801 18.8555L8.37005 19.9728H2.20837C1.72222 19.9728 1.32812 19.5787 1.32812 19.0926C1.32812 18.6064 1.72222 18.2123 2.20837 18.2123H7.48981L9.29258 15.8086L10.6016 17.7722H11.8192L12.7801 11.0459L14.5249 11.0612L15.5839 19.5327H16.1883L17.3714 17.1664L18.8574 18.6524H22.0138C22.4999 18.6524 22.894 19.0465 22.894 19.5327C22.894 20.0188 22.4999 20.4129 22.0138 20.4129H18.1282L17.8537 20.1384L17.2764 21.2932H16.656L16.2886 25.3339L14.5385 25.3634L13.5933 17.8018Z" fill="white"/>
<path fill-rule="evenodd" clip-rule="evenodd" d="M13.6315 14.0459L12.5767 21.4298L11.188 18.6524H9.90409L9.23825 17.6536L8.15909 19.0925H2.21746C1.97439 19.0925 1.77734 18.8955 1.77734 18.6524C1.77734 18.4093 1.97439 18.2123 2.21746 18.2123H7.71897L9.28054 16.1302L10.3752 17.7721H11.732L12.1038 18.5157L13.2249 10.668L14.0973 10.6756L15.352 20.7129L15.4593 19.5326H16.4694L17.5011 17.4693L18.6842 18.6524H22.0229C22.266 18.6524 22.463 18.8494 22.463 19.0925C22.463 19.3356 22.266 19.5326 22.0229 19.5326H18.3196L17.7423 18.9553L17.0135 20.4129H16.2631L15.8594 24.8539L14.9844 24.8687L13.6315 14.0459Z" fill="#3B6875"/>
<path d="M23.3308 19.0931C23.3308 19.5793 22.9367 19.9734 22.4506 19.9734C21.9644 19.9734 21.5703 19.5793 21.5703 19.0931C21.5703 18.607 21.9644 18.2129 22.4506 18.2129C22.9367 18.2129 23.3308 18.607 23.3308 19.0931Z" fill="#3B6875"/>
<path fill-rule="evenodd" clip-rule="evenodd" d="M2.86719 13.8099C2.86719 13.6884 2.96571 13.5898 3.08725 13.5898H23.7729C23.8945 13.5898 23.993 13.6884 23.993 13.8099C23.993 13.9314 23.8945 14.03 23.7729 14.03H3.08725C2.96571 14.03 2.86719 13.9314 2.86719 13.8099ZM2.86719 23.4926C2.86719 23.371 2.96571 23.2725 3.08725 23.2725H23.7729C23.8945 23.2725 23.993 23.371 23.993 23.4926C23.993 23.6141 23.8945 23.7126 23.7729 23.7126H3.08725C2.96571 23.7126 2.86719 23.6141 2.86719 23.4926Z" fill="#3B6875"/>
<path fill-rule="evenodd" clip-rule="evenodd" d="M23.7824 4.09012C23.9026 3.96996 24.0974 3.96996 24.2176 4.09012L26.0637 5.93627C26.1839 6.05644 26.1839 6.25126 26.0637 6.37142C25.9436 6.49158 25.7487 6.49158 25.6286 6.37142L24.3077 5.05053V9.84615C24.3077 10.0161 24.1699 10.1538 24 10.1538C23.8301 10.1538 23.6923 10.0161 23.6923 9.84615V5.05053L22.3714 6.37142C22.2513 6.49158 22.0564 6.49158 21.9363 6.37142C21.8161 6.25126 21.8161 6.05644 21.9363 5.93627L23.7824 4.09012ZM20.3077 9.53846C20.4776 9.53846 20.6154 9.67622 20.6154 9.84615V10.7692C20.6154 10.9324 20.6802 11.089 20.7956 11.2044C20.911 11.3198 21.0676 11.3846 21.2308 11.3846H26.7692C26.9324 11.3846 27.089 11.3198 27.2044 11.2044C27.3198 11.089 27.3846 10.9324 27.3846 10.7692V9.84615C27.3846 9.67622 27.5224 9.53846 27.6923 9.53846C27.8622 9.53846 28 9.67622 28 9.84615V10.7692C28 11.0957 27.8703 11.4087 27.6395 11.6395C27.4087 11.8703 27.0957 12 26.7692 12H21.2308C20.9043 12 20.5913 11.8703 20.3605 11.6395C20.1297 11.4087 20 11.0957 20 10.7692V9.84615C20 9.67622 20.1378 9.53846 20.3077 9.53846Z" fill="white"/>
</svg>
