<svg width="21" height="16" viewBox="0 0 21 16" fill="none" xmlns="http://www.w3.org/2000/svg">
<path fill-rule="evenodd" clip-rule="evenodd" d="M4.13575 0.21934C4.20544 0.28899 4.26073 0.371691 4.29845 0.462717C4.33617 0.553742 4.35559 0.651308 4.35559 0.74984C4.35559 0.848372 4.33617 0.945938 4.29845 1.03696C4.26073 1.12799 4.20544 1.21069 4.13575 1.28034C3.30001 2.11607 2.63707 3.10823 2.18477 4.20016C1.73247 5.2921 1.49967 6.46243 1.49967 7.64434C1.49967 8.82625 1.73247 9.99658 2.18477 11.0885C2.63707 12.1805 3.30001 13.1726 4.13575 14.0083C4.20944 14.077 4.26854 14.1598 4.30953 14.2518C4.35052 14.3438 4.37256 14.4431 4.37434 14.5438C4.37612 14.6445 4.35759 14.7445 4.31987 14.8379C4.28215 14.9313 4.22601 15.0162 4.15479 15.0874C4.08357 15.1586 3.99874 15.2147 3.90535 15.2525C3.81196 15.2902 3.71193 15.3087 3.61123 15.3069C3.51052 15.3052 3.41121 15.2831 3.31921 15.2421C3.22721 15.2011 3.14441 15.142 3.07575 15.0683C-1.02525 10.9683 -1.02525 4.32034 3.07575 0.21934C3.21638 0.0788894 3.407 0 3.60575 0C3.8045 0 3.99512 0.0788894 4.13575 0.21934ZM16.8638 0.21934C17.0044 0.0788894 17.195 0 17.3937 0C17.5925 0 17.7831 0.0788894 17.9237 0.21934C22.0247 4.31934 22.0247 10.9693 17.9237 15.0693C17.8545 15.1409 17.7717 15.198 17.6802 15.2373C17.5887 15.2766 17.4903 15.2972 17.3907 15.298C17.2911 15.2988 17.1924 15.2798 17.1002 15.2421C17.0081 15.2043 16.9243 15.1486 16.854 15.0781C16.7836 15.0077 16.7279 14.9239 16.6903 14.8317C16.6526 14.7395 16.6337 14.6408 16.6346 14.5412C16.6355 14.4416 16.6562 14.3432 16.6956 14.2517C16.7349 14.1602 16.7921 14.0775 16.8638 14.0083C17.6995 13.1726 18.3624 12.1805 18.8147 11.0885C19.267 9.99658 19.4998 8.82625 19.4998 7.64434C19.4998 6.46243 19.267 5.2921 18.8147 4.20016C18.3624 3.10823 17.6995 2.11607 16.8638 1.28034C16.7233 1.13971 16.6444 0.949091 16.6444 0.75034C16.6444 0.551589 16.7233 0.360966 16.8638 0.22034V0.21934ZM6.25675 2.34134C6.3972 2.48197 6.47609 2.67259 6.47609 2.87134C6.47609 3.07009 6.3972 3.26071 6.25675 3.40134C5.69949 3.9585 5.25744 4.61999 4.95585 5.348C4.65426 6.07602 4.49903 6.85632 4.49903 7.64434C4.49903 8.43236 4.65426 9.21266 4.95585 9.94068C5.25744 10.6687 5.69949 11.3302 6.25675 11.8873C6.38923 12.0295 6.46135 12.2176 6.45792 12.4119C6.4545 12.6062 6.37578 12.7915 6.23837 12.929C6.10096 13.0664 5.91557 13.1451 5.72127 13.1485C5.52697 13.1519 5.33892 13.0798 5.19675 12.9473C3.79041 11.5408 3.00035 9.63332 3.00035 7.64434C3.00035 5.65536 3.79041 3.74784 5.19675 2.34134C5.33738 2.20089 5.528 2.122 5.72675 2.122C5.9255 2.122 6.11612 2.20089 6.25675 2.34134ZM14.7428 2.34134C14.8834 2.20089 15.074 2.122 15.2728 2.122C15.4715 2.122 15.6621 2.20089 15.8027 2.34134C17.2091 3.74784 17.9991 5.65536 17.9991 7.64434C17.9991 9.63332 17.2091 11.5408 15.8027 12.9473C15.6606 13.0798 15.4725 13.1519 15.2782 13.1485C15.0839 13.1451 14.8985 13.0664 14.7611 12.929C14.6237 12.7915 14.545 12.6062 14.5416 12.4119C14.5381 12.2176 14.6103 12.0295 14.7428 11.8873C15.3 11.3302 15.7421 10.6687 16.0436 9.94068C16.3452 9.21266 16.5005 8.43236 16.5005 7.64434C16.5005 6.85632 16.3452 6.07602 16.0436 5.348C15.7421 4.61999 15.3 3.9585 14.7428 3.40134C14.6023 3.26071 14.5234 3.07009 14.5234 2.87134C14.5234 2.67259 14.6023 2.48197 14.7428 2.34134ZM8.37875 4.46234C8.5192 4.60297 8.59809 4.79359 8.59809 4.99234C8.59809 5.19109 8.5192 5.38171 8.37875 5.52234C8.10012 5.80092 7.8791 6.13166 7.7283 6.49567C7.5775 6.85968 7.49989 7.24983 7.49989 7.64384C7.49989 8.03785 7.5775 8.428 7.7283 8.79201C7.8791 9.15602 8.10012 9.48676 8.37875 9.76534C8.44842 9.83501 8.50368 9.91771 8.54138 10.0087C8.57909 10.0998 8.59849 10.1973 8.59849 10.2958C8.59849 10.3944 8.57909 10.4919 8.54138 10.5829C8.50368 10.674 8.44842 10.7567 8.37875 10.8263C8.30908 10.896 8.22638 10.9513 8.13535 10.989C8.04433 11.0267 7.94677 11.0461 7.84825 11.0461C7.74973 11.0461 7.65217 11.0267 7.56115 10.989C7.47012 10.9513 7.38742 10.896 7.31775 10.8263C6.89988 10.4085 6.56841 9.9124 6.34226 9.36643C6.11611 8.82046 5.99971 8.23529 5.99971 7.64434C5.99971 7.05339 6.11611 6.46822 6.34226 5.92225C6.56841 5.37628 6.89988 4.8802 7.31775 4.46234C7.45837 4.32189 7.649 4.243 7.84775 4.243C8.0465 4.243 8.23812 4.32189 8.37875 4.46234ZM12.6208 4.46234C12.6904 4.39264 12.7731 4.33736 12.8641 4.29964C12.9552 4.26192 13.0527 4.2425 13.1512 4.2425C13.2498 4.2425 13.3473 4.26192 13.4384 4.29964C13.5294 4.33736 13.6121 4.39264 13.6817 4.46234C14.0996 4.8802 14.4311 5.37628 14.6572 5.92225C14.8834 6.46822 14.9998 7.05339 14.9998 7.64434C14.9998 8.23529 14.8834 8.82046 14.6572 9.36643C14.4311 9.9124 14.0996 10.4085 13.6817 10.8263C13.5396 10.9588 13.3515 11.0309 13.1572 11.0275C12.9629 11.0241 12.7775 10.9454 12.6401 10.808C12.5027 10.6705 12.424 10.4852 12.4206 10.2909C12.4171 10.0966 12.4893 9.90851 12.6217 9.76634C12.9004 9.48776 13.1214 9.15702 13.2722 8.79301C13.423 8.429 13.5006 8.03885 13.5006 7.64484C13.5006 7.25083 13.423 6.86068 13.2722 6.49667C13.1214 6.13266 12.9004 5.80192 12.6217 5.52334C12.5521 5.45369 12.4968 5.37099 12.459 5.27996C12.4213 5.18894 12.4019 5.09137 12.4019 4.99284C12.4019 4.89431 12.4213 4.79674 12.459 4.70572C12.4968 4.61469 12.5511 4.53199 12.6208 4.46234ZM9.37475 7.64434C9.37475 7.34597 9.49328 7.05982 9.70425 6.84885C9.91523 6.63787 10.2014 6.51934 10.4998 6.51934C10.7981 6.51934 11.0843 6.63787 11.2952 6.84885C11.5062 7.05982 11.6248 7.34597 11.6248 7.64434C11.6248 7.94271 11.5062 8.22886 11.2952 8.43983C11.0843 8.65081 10.7981 8.76934 10.4998 8.76934C10.2014 8.76934 9.91523 8.65081 9.70425 8.43983C9.49328 8.22886 9.37475 7.94271 9.37475 7.64434Z" fill="#3B6875"/>
</svg>
